<svg width="719" height="196" viewBox="0 0 719 196" fill="none" xmlns="http://www.w3.org/2000/svg">
<path d="M52.6736 188.642V160.874C52.6736 147.602 48.4028 134.244 39.6203 120.037C38.6535 118.472 37.6761 116.48 36.7695 114.226H44.8827C47.2271 114.226 49.1323 112.157 49.1323 109.611V94.996H80.296C82.6404 94.996 84.5456 92.9268 84.5456 90.3808V74.9968C84.5456 72.4507 82.6368 70.3816 80.296 70.3816H66.839V56.536H80.296C82.6404 56.536 84.5456 54.4668 84.5456 51.9208V18.7875C86.9714 18.4298 89.4149 18.249 91.8443 18.249C119.353 18.249 141.926 41.3096 147.641 57.9513C153.743 75.7083 151.721 81.5119 151.254 82.4965C150.545 83.9926 150.634 85.781 151.484 87.1694L167.027 112.541C167.615 113.599 168.22 116.43 167.668 118.06C167.466 118.653 167.193 118.857 166.846 118.98C162.625 120.495 158.729 121.422 156.785 121.837C154.809 122.26 153.375 124.164 153.375 126.36V147.967C153.375 148.152 153.042 166.528 141.143 166.528H118.776C116.432 166.528 114.526 168.597 114.526 171.143V193.25L52.6736 188.642Z" fill="url(#paint0_linear_701_265)"/>
<path d="M91.8441 20.9381C118.227 20.9381 139.85 42.9795 145.318 58.8905C151.275 76.2282 149.072 81.2127 149.047 81.2627C147.928 83.6241 148.07 86.4586 149.419 88.6585L164.877 113.896C165.174 114.5 165.44 115.827 165.408 116.657C161.566 117.992 158.088 118.815 156.3 119.2C153.166 119.873 150.892 122.884 150.892 126.365V147.972C150.892 148.129 150.474 163.84 141.139 163.84H118.772C115.061 163.84 112.044 167.117 112.044 171.148V190.374L55.1524 186.132V160.875C55.1524 147.052 50.747 133.203 41.6777 118.534C41.3731 118.042 41.065 117.5 40.7604 116.919H44.8826C48.5939 116.919 51.6111 113.642 51.6111 109.612V97.6889H64.3599H80.2958C84.0071 97.6889 87.0244 94.4121 87.0244 90.3815V74.9975C87.0244 70.9669 84.0071 67.6901 80.2958 67.6901H69.3177V59.2289H80.2958C84.0071 59.2289 87.0244 55.9521 87.0244 51.9215V46.2487V36.5375V21.1881C88.6321 21.0227 90.2434 20.9381 91.8441 20.9381ZM91.8441 15.5537C88.6498 15.5537 85.3883 15.8499 82.0665 16.4806V36.5375V46.2487V51.9215C82.0665 52.983 81.2732 53.8445 80.2958 53.8445H66.1305C65.1531 53.8445 64.3599 54.706 64.3599 55.7675V71.1515C64.3599 72.213 65.1531 73.0745 66.1305 73.0745H80.2958C81.2732 73.0745 82.0665 73.936 82.0665 74.9975V90.3815C82.0665 91.443 81.2732 92.3045 80.2958 92.3045H64.3599H48.4239C47.4465 92.3045 46.6532 93.166 46.6532 94.2275V109.612C46.6532 110.673 45.86 111.535 44.8826 111.535H35.707C34.4356 111.535 33.5928 112.95 34.078 114.227C35.1829 117.142 36.3763 119.619 37.5626 121.538C47.9493 138.337 50.1945 151.198 50.1945 160.875V189.362C50.1945 190.37 50.9099 191.204 51.8377 191.281L115.104 195.997C115.146 196 115.192 196 115.235 196C116.201 196 117.002 195.147 117.002 194.077V171.148C117.002 170.086 117.795 169.225 118.772 169.225H141.139C152.907 169.225 155.85 154.421 155.85 147.972V126.365C155.85 125.446 156.431 124.661 157.263 124.484C159.296 124.049 163.28 123.099 167.618 121.542C171.612 120.107 170.437 113.477 169.088 111.054L153.548 85.6817C153.187 85.0933 153.159 84.3625 153.456 83.7356C154.49 81.5626 156.063 74.7668 149.964 57.0136C144.171 40.1527 121.01 15.5537 91.8441 15.5537Z" fill="#472B29"/>
<path d="M118.103 167.302C105.029 167.302 93.3281 162.833 85.1618 154.722C84.4394 154.006 84.3898 152.787 85.0485 152.006C85.7107 151.222 86.8298 151.168 87.5522 151.887C95.0634 159.348 105.914 163.46 118.103 163.46C119.081 163.46 119.874 164.321 119.874 165.383C119.874 166.444 119.084 167.302 118.103 167.302Z" fill="#472B29"/>
<path d="M81.7978 149.725C81.2525 149.725 80.7142 149.452 80.3707 148.94C79.0498 146.99 77.9059 144.909 76.9675 142.756C76.5496 141.794 76.9285 140.648 77.8103 140.194C78.6921 139.737 79.7509 140.152 80.1688 141.11C81.0116 143.04 82.0386 144.913 83.2214 146.663C83.8022 147.521 83.6322 148.725 82.8425 149.352C82.5273 149.602 82.1626 149.725 81.7978 149.725Z" fill="#472B29"/>
<path d="M110.248 63.4594H96.3769C95.3181 63.4594 94.4575 62.5249 94.4575 61.3749V46.3101C94.4575 45.1602 95.3181 44.2256 96.3769 44.2256H110.248C111.307 44.2256 112.168 45.1602 112.168 46.3101V61.3749C112.168 62.5249 111.307 63.4594 110.248 63.4594Z" fill="#EE3E54"/>
<path d="M110.249 64.4205H96.3775C94.8299 64.4205 93.5728 63.0552 93.5728 61.3745V46.3097C93.5728 44.629 94.8299 43.2637 96.3775 43.2637H110.249C111.796 43.2637 113.054 44.629 113.054 46.3097V61.3745C113.054 63.0552 111.796 64.4205 110.249 64.4205ZM96.381 45.1905C95.8109 45.1905 95.347 45.6943 95.347 46.3135V61.3783C95.347 61.9975 95.8109 62.5014 96.381 62.5014H110.252C110.823 62.5014 111.286 61.9975 111.286 61.3783V46.3135C111.286 45.6943 110.823 45.1905 110.252 45.1905H96.381Z" fill="#472B29"/>
<path d="M135.038 90.3803H121.166C120.108 90.3803 119.247 89.4458 119.247 88.2958V73.231C119.247 72.0811 120.108 71.1465 121.166 71.1465H135.038C136.097 71.1465 136.957 72.0811 136.957 73.231V88.2958C136.957 89.4458 136.097 90.3803 135.038 90.3803Z" fill="#6148FF"/>
<path d="M135.038 91.3424H121.167C119.619 91.3424 118.362 89.9771 118.362 88.2964V73.2316C118.362 71.5509 119.619 70.1855 121.167 70.1855H135.038C136.585 70.1855 137.843 71.5509 137.843 73.2316V88.2964C137.843 89.9771 136.585 91.3424 135.038 91.3424ZM121.17 72.1124C120.6 72.1124 120.136 72.6162 120.136 73.2354V88.3002C120.136 88.9194 120.6 89.4232 121.17 89.4232H135.041C135.612 89.4232 136.076 88.9194 136.076 88.3002V73.2354C136.076 72.6162 135.612 72.1124 135.041 72.1124H121.17Z" fill="#472B29"/>
<path d="M81.9182 128.84H68.0468C66.988 128.84 66.1274 127.906 66.1274 126.756V111.691C66.1274 110.541 66.988 109.606 68.0468 109.606H81.9182C82.9771 109.606 83.8376 110.541 83.8376 111.691V126.756C83.8376 127.906 82.9771 128.84 81.9182 128.84Z" fill="url(#paint1_linear_701_265)"/>
<path d="M81.9183 129.802H68.0469C66.4994 129.802 65.2422 128.437 65.2422 126.756V111.692C65.2422 110.011 66.4994 108.646 68.0469 108.646H81.9183C83.4659 108.646 84.723 110.011 84.723 111.692V126.756C84.723 128.437 83.4659 129.802 81.9183 129.802ZM68.0505 110.572C67.4803 110.572 67.0164 111.076 67.0164 111.695V126.76C67.0164 127.379 67.4803 127.883 68.0505 127.883H81.9218C82.492 127.883 82.9559 127.379 82.9559 126.76V111.695C82.9559 111.076 82.492 110.572 81.9218 110.572H68.0505Z" fill="#472B29"/>
<path d="M109.866 117.304H93.2218C91.9505 117.304 90.9199 116.184 90.9199 114.804V96.7274C90.9199 95.3467 91.9505 94.2275 93.2218 94.2275H109.866C111.137 94.2275 112.168 95.3467 112.168 96.7274V114.804C112.168 116.184 111.137 117.304 109.866 117.304Z" fill="#1766FF"/>
<path d="M109.867 118.265H93.2224C91.4659 118.265 90.0352 116.711 90.0352 114.803V96.727C90.0352 94.8194 91.4659 93.2656 93.2224 93.2656H109.867C111.623 93.2656 113.054 94.8194 113.054 96.727V114.803C113.054 116.711 111.623 118.265 109.867 118.265ZM93.2224 95.1886C92.4397 95.1886 91.8058 95.8771 91.8058 96.727V114.803C91.8058 115.649 92.4397 116.342 93.2224 116.342H109.867C110.649 116.342 111.283 115.653 111.283 114.803V96.727C111.283 95.8809 110.649 95.1886 109.867 95.1886H93.2224Z" fill="#472B29"/>
<path d="M107.093 141.34H95.9949C94.6634 141.34 93.5762 140.16 93.5762 138.713V133.81C93.5762 133.279 93.9728 132.848 94.4615 132.848C94.9502 132.848 95.3468 133.279 95.3468 133.81V138.713C95.3468 139.102 95.6372 139.417 95.9949 139.417H107.093C107.451 139.417 107.741 139.102 107.741 138.713V126.664C107.741 126.275 107.451 125.96 107.093 125.96H95.9949C95.6372 125.96 95.3468 126.275 95.3468 126.664V129.883C95.3468 130.414 94.9502 130.845 94.4615 130.845C93.9728 130.845 93.5762 130.414 93.5762 129.883V126.664C93.5762 125.214 94.6634 124.037 95.9949 124.037H107.093C108.425 124.037 109.512 125.218 109.512 126.664V138.713C109.512 140.16 108.425 141.34 107.093 141.34Z" fill="#472B29"/>
<path d="M107.094 87.4955C106.605 87.4955 106.208 87.0648 106.208 86.534C106.208 86.0033 106.605 85.5725 107.094 85.5725C107.451 85.5725 107.742 85.2572 107.742 84.8687V72.8192C107.742 72.4308 107.451 72.1154 107.094 72.1154H100.585C100.096 72.1154 99.6992 71.6846 99.6992 71.1539C99.6992 70.6231 100.096 70.1924 100.585 70.1924H107.094C108.425 70.1924 109.512 71.3731 109.512 72.8192V84.8687C109.512 86.3148 108.425 87.4955 107.094 87.4955Z" fill="#472B29"/>
<path d="M103.095 87.4955H95.9983C94.6668 87.4955 93.5796 86.3148 93.5796 84.8687V72.8192C93.5796 71.3693 94.6668 70.1924 95.9983 70.1924C96.487 70.1924 96.8836 70.6231 96.8836 71.1539C96.8836 71.6846 96.487 72.1154 95.9983 72.1154C95.6406 72.1154 95.3503 72.4308 95.3503 72.8192V84.8687C95.3503 85.2572 95.6406 85.5725 95.9983 85.5725H103.095C103.584 85.5725 103.98 86.0033 103.98 86.534C103.98 87.0648 103.584 87.4955 103.095 87.4955Z" fill="#472B29"/>
<path d="M138.197 122.111H132.162C131.673 122.111 131.277 121.681 131.277 121.15C131.277 120.619 131.673 120.188 132.162 120.188H138.197C138.979 120.188 139.613 119.5 139.613 118.65C139.613 118.119 140.01 117.688 140.498 117.688C140.987 117.688 141.384 118.119 141.384 118.65C141.384 120.558 139.953 122.111 138.197 122.111Z" fill="#472B29"/>
<path d="M140.498 115.941C140.01 115.941 139.613 115.511 139.613 114.98V100.573C139.613 99.7266 138.979 99.0343 138.197 99.0343H128.84C128.352 99.0343 127.955 98.6036 127.955 98.0728C127.955 97.5421 128.352 97.1113 128.84 97.1113H138.197C139.953 97.1113 141.384 98.6651 141.384 100.573V114.98C141.384 115.511 140.987 115.941 140.498 115.941Z" fill="#472B29"/>
<path d="M126.556 122.11H121.552C119.796 122.11 118.365 120.557 118.365 118.649V100.573C118.365 98.6651 119.796 97.1113 121.552 97.1113H124.194C124.683 97.1113 125.08 97.5421 125.08 98.0728C125.08 98.6036 124.683 99.0343 124.194 99.0343H121.552C120.77 99.0343 120.136 99.7228 120.136 100.573V118.649C120.136 119.495 120.77 120.187 121.552 120.187H126.556C127.045 120.187 127.442 120.618 127.442 121.149C127.442 121.68 127.045 122.11 126.556 122.11Z" fill="#472B29"/>
<path d="M59.1971 44.2287L59.0483 29.0063L73.0649 28.8447L73.2137 44.0672L73.0649 44.2287H59.1971Z" fill="#1766FF"/>
<path d="M71.4427 30.7689V42.3069H60.8187V30.7689H71.4427ZM73.0646 26.9229H59.1932C58.1379 26.9229 57.2773 27.8574 57.2773 29.0074V44.0722C57.2773 45.2183 58.1379 46.1529 59.1967 46.1529H73.0681C74.1234 46.1529 74.984 45.2183 74.984 44.0683V29.0035C74.984 27.8574 74.1234 26.9229 73.0646 26.9229Z" fill="#472B29"/>
<path d="M48.5731 17.3069L48.4243 2.08438L62.4409 1.92285L62.5896 17.1453L62.4409 17.3069H48.5731Z" fill="url(#paint2_linear_701_265)"/>
<path d="M60.8191 3.846V15.384H50.1951V3.846H60.8191ZM62.441 0H48.5697C47.5144 0 46.6538 0.934578 46.6538 2.08453V17.1493C46.6538 18.2954 47.5144 19.23 48.5732 19.23H62.4446C63.4999 19.23 64.3604 18.2954 64.3604 17.1455V2.08069C64.3604 0.93458 63.4999 0 62.441 0Z" fill="#472B29"/>
<path d="M27.7075 51.9214C27.4135 51.9214 27.1763 51.6637 27.1763 51.3445V33.2683C27.1763 32.9491 27.4135 32.6914 27.7075 32.6914H44.3517C44.6456 32.6914 44.8829 32.9491 44.8829 33.2683V51.3445C44.8829 51.6637 44.6456 51.9214 44.3517 51.9214H27.7075Z" fill="#7EF36F"/>
<path d="M43.1119 34.6136V49.9976H28.9466V34.6136H43.1119ZM44.3514 30.7676H27.7071C26.4358 30.7676 25.4053 31.8868 25.4053 33.2675V51.3437C25.4053 52.7244 26.4358 53.8436 27.7071 53.8436H44.3514C45.6227 53.8436 46.6532 52.7244 46.6532 51.3437V33.2675C46.6532 31.8868 45.6227 30.7676 44.3514 30.7676Z" fill="#472B29"/>
<path d="M23.784 101.919L23.6353 86.6967L37.6518 86.5352L37.8006 101.758L37.6518 101.919H23.784Z" fill="url(#paint3_linear_701_265)"/>
<path d="M36.0301 88.4583V99.9963H25.4061V88.4583H36.0301ZM37.652 84.6123H23.7806C22.7253 84.6123 21.8647 85.5469 21.8647 86.6968V101.762C21.8647 102.908 22.7253 103.842 23.7841 103.842H37.6555C38.7108 103.842 39.5714 102.908 39.5714 101.758V86.693C39.5714 85.5469 38.7108 84.6123 37.652 84.6123Z" fill="#472B29"/>
<path d="M41.4905 78.842L41.3418 63.6195L55.3584 63.458L55.5071 78.6805L55.3584 78.842H41.4905Z" fill="#FE316F"/>
<path d="M53.7366 65.3812V76.9192H43.1126V65.3812H53.7366ZM55.3585 61.5352H41.4871C40.4318 61.5352 39.5713 62.4697 39.5713 63.6197V78.6845C39.5713 79.8306 40.4318 80.7652 41.4907 80.7652H55.3621C56.4174 80.7652 57.2779 79.8306 57.2779 78.6806V63.6158C57.2779 62.4697 56.4174 61.5352 55.3585 61.5352Z" fill="#472B29"/>
<path d="M119.431 41.3525C125.83 46.0562 131.875 53.0521 136.957 63.4594Z" fill="#F6CCA4"/>
<path d="M136.957 64.4212C136.642 64.4212 136.334 64.2366 136.175 63.9097C131.578 54.4986 125.777 47.1796 118.932 42.149C118.528 41.8529 118.419 41.2529 118.695 40.8145C118.971 40.376 119.523 40.2606 119.924 40.5568C127.01 45.7643 133.002 53.3178 137.736 63.0059C137.967 63.4751 137.804 64.0559 137.368 64.3059C137.241 64.3866 137.099 64.4212 136.957 64.4212Z" fill="#472B29"/>
<path d="M98.0024 32.6904C102.776 33.4558 107.716 34.8057 112.575 37.1941Z" fill="#F6CCA4"/>
<path d="M112.575 38.1557C112.451 38.1557 112.327 38.1287 112.21 38.071C107.879 35.9442 103.19 34.4943 97.8714 33.6404C97.3898 33.5635 97.0533 33.0751 97.1242 32.5482C97.1985 32.0251 97.6518 31.6559 98.1299 31.7367C103.612 32.6174 108.456 34.1135 112.94 36.3173C113.386 36.5365 113.584 37.1057 113.382 37.5903C113.234 37.9441 112.911 38.1557 112.575 38.1557Z" fill="#472B29"/>
<path d="M2.53545 36.5354L2.38672 21.3129L16.4033 21.1514L16.552 36.3738L16.4033 36.5354H2.53545Z" fill="#EE3E54"/>
<path d="M14.7815 23.0745V34.6125H4.15754V23.0745H14.7815ZM16.4035 19.2285H2.53207C1.47675 19.2285 0.616211 20.1631 0.616211 21.313V36.3778C0.616211 37.5239 1.47675 38.4585 2.53561 38.4585H16.407C17.4623 38.4585 18.3229 37.5239 18.3229 36.374V21.3092C18.3229 20.1631 17.4623 19.2285 16.4035 19.2285Z" fill="#472B29"/>
<path d="M205.295 103.914C203.67 103.914 202.248 103.305 201.029 102.085C199.81 100.866 199.2 99.4442 199.2 97.8188V24.676C199.2 23.0506 199.81 21.6283 201.029 20.4093C202.248 19.1903 203.67 18.5807 205.295 18.5807H241.867C246.743 18.5807 251.01 20.4093 254.667 24.0664C258.324 27.7236 260.153 31.9903 260.153 36.8664V85.6283C260.153 90.5045 258.324 94.7712 254.667 98.4283C251.01 102.085 246.743 103.914 241.867 103.914H205.295ZM247.962 85.6283V36.8664C247.962 35.2411 247.353 33.8188 246.134 32.5998C244.915 31.3807 243.492 30.7712 241.867 30.7712H211.391V91.7236H241.867C243.492 91.7236 244.915 91.1141 246.134 89.895C247.353 88.676 247.962 87.2537 247.962 85.6283ZM296.706 55.1522H290.611C288.986 55.1522 287.563 54.5426 286.344 53.3236C285.125 52.1045 284.516 50.6823 284.516 49.0569C284.516 47.4315 285.125 46.0093 286.344 44.7903C287.563 43.5712 288.986 42.9617 290.611 42.9617H302.801C304.427 42.9617 305.849 43.5712 307.068 44.7903C308.287 46.0093 308.897 47.4315 308.897 49.0569V91.7236H314.992C316.617 91.7236 318.04 92.3331 319.259 93.5522C320.478 94.7712 321.087 96.1934 321.087 97.8188C321.087 99.4442 320.478 100.866 319.259 102.085C318.04 103.305 316.617 103.914 314.992 103.914H290.611C288.986 103.914 287.563 103.305 286.344 102.085C285.125 100.866 284.516 99.4442 284.516 97.8188C284.516 96.1934 285.125 94.7712 286.344 93.5522C287.563 92.3331 288.986 91.7236 290.611 91.7236H296.706V55.1522ZM302.801 30.7712C301.176 30.7712 299.754 30.1617 298.535 28.9426C297.316 27.7236 296.706 26.3014 296.706 24.676C296.706 23.0506 297.316 21.6283 298.535 20.4093C299.754 19.1903 301.176 18.5807 302.801 18.5807C304.427 18.5807 305.849 19.1903 307.068 20.4093C308.287 21.6283 308.897 23.0506 308.897 24.676C308.897 26.3014 308.287 27.7236 307.068 28.9426C305.849 30.1617 304.427 30.7712 302.801 30.7712ZM363.736 91.7236C358.86 91.7236 354.593 89.895 350.936 86.2379C347.279 82.5807 345.45 78.3141 345.45 73.4379V61.2474C345.45 56.3712 347.279 52.1045 350.936 48.4474C354.593 44.7903 358.86 42.9617 363.736 42.9617H400.307C401.933 42.9617 403.355 43.5712 404.574 44.7903C405.793 46.0093 406.403 47.4315 406.403 49.0569V97.8188C406.403 102.695 404.574 106.962 400.917 110.619C397.26 114.276 392.993 116.105 388.117 116.105H363.736C362.111 116.105 360.688 115.495 359.469 114.276C358.25 113.057 357.641 111.635 357.641 110.009C357.641 108.384 358.25 106.962 359.469 105.743C360.688 104.524 362.111 103.914 363.736 103.914H388.117C389.742 103.914 391.165 103.305 392.384 102.085C393.603 100.866 394.212 99.4442 394.212 97.8188V91.7236H363.736ZM394.212 79.5331V55.1522H363.736C362.111 55.1522 360.688 55.7617 359.469 56.9807C358.25 58.1998 357.641 59.622 357.641 61.2474V73.4379C357.641 75.0633 358.25 76.4855 359.469 77.7045C360.688 78.9236 362.111 79.5331 363.736 79.5331H394.212ZM442.956 55.1522H436.861C435.236 55.1522 433.813 54.5426 432.594 53.3236C431.375 52.1045 430.766 50.6823 430.766 49.0569C430.766 47.4315 431.375 46.0093 432.594 44.7903C433.813 43.5712 435.236 42.9617 436.861 42.9617H449.051C450.677 42.9617 452.099 43.5712 453.318 44.7903C454.537 46.0093 455.147 47.4315 455.147 49.0569V91.7236H461.242C462.867 91.7236 464.29 92.3331 465.509 93.5522C466.728 94.7712 467.337 96.1934 467.337 97.8188C467.337 99.4442 466.728 100.866 465.509 102.085C464.29 103.305 462.867 103.914 461.242 103.914H436.861C435.236 103.914 433.813 103.305 432.594 102.085C431.375 100.866 430.766 99.4442 430.766 97.8188C430.766 96.1934 431.375 94.7712 432.594 93.5522C433.813 92.3331 435.236 91.7236 436.861 91.7236H442.956V55.1522ZM449.051 30.7712C447.426 30.7712 446.004 30.1617 444.785 28.9426C443.566 27.7236 442.956 26.3014 442.956 24.676C442.956 23.0506 443.566 21.6283 444.785 20.4093C446.004 19.1903 447.426 18.5807 449.051 18.5807C450.677 18.5807 452.099 19.1903 453.318 20.4093C454.537 21.6283 455.147 23.0506 455.147 24.676C455.147 26.3014 454.537 27.7236 453.318 28.9426C452.099 30.1617 450.677 30.7712 449.051 30.7712ZM509.986 55.1522C508.361 55.1522 506.938 54.5426 505.719 53.3236C504.5 52.1045 503.891 50.6823 503.891 49.0569C503.891 47.4315 504.5 46.0093 505.719 44.7903C506.938 43.5712 508.361 42.9617 509.986 42.9617H516.081V24.676C516.081 23.0506 516.691 21.6283 517.91 20.4093C519.129 19.1903 520.551 18.5807 522.176 18.5807C523.802 18.5807 525.224 19.1903 526.443 20.4093C527.662 21.6283 528.272 23.0506 528.272 24.676V42.9617H546.557C548.183 42.9617 549.605 43.5712 550.824 44.7903C552.043 46.0093 552.653 47.4315 552.653 49.0569C552.653 50.6823 552.043 52.1045 550.824 53.3236C549.605 54.5426 548.183 55.1522 546.557 55.1522H528.272V85.6283C528.272 87.2537 528.881 88.676 530.1 89.895C531.319 91.1141 532.741 91.7236 534.367 91.7236H546.557C548.183 91.7236 549.605 92.3331 550.824 93.5522C552.043 94.7712 552.653 96.1934 552.653 97.8188C552.653 99.4442 552.043 100.866 550.824 102.085C549.605 103.305 548.183 103.914 546.557 103.914H534.367C529.491 103.914 525.224 102.085 521.567 98.4283C517.91 94.7712 516.081 90.5045 516.081 85.6283V55.1522H509.986ZM583.111 103.914C578.235 103.914 573.968 102.085 570.311 98.4283C566.654 94.7712 564.825 90.5045 564.825 85.6283C564.825 80.7522 566.654 76.4855 570.311 72.8283C573.968 69.1712 578.235 67.3426 583.111 67.3426H613.587V61.2474C613.587 59.622 612.978 58.1998 611.759 56.9807C610.54 55.7617 609.117 55.1522 607.492 55.1522H583.111C581.486 55.1522 580.063 54.5426 578.844 53.3236C577.625 52.1045 577.016 50.6823 577.016 49.0569C577.016 47.4315 577.625 46.0093 578.844 44.7903C580.063 43.5712 581.486 42.9617 583.111 42.9617H607.492C612.368 42.9617 616.635 44.7903 620.292 48.4474C623.949 52.1045 625.778 56.3712 625.778 61.2474V97.8188C625.778 99.4442 625.168 100.866 623.949 102.085C622.73 103.305 621.308 103.914 619.682 103.914H583.111ZM613.587 79.5331H583.111C581.486 79.5331 580.063 80.1426 578.844 81.3617C577.625 82.5807 577.016 84.003 577.016 85.6283C577.016 87.2537 577.625 88.676 578.844 89.895C580.063 91.1141 581.486 91.7236 583.111 91.7236H613.587V79.5331ZM656.236 103.914C654.611 103.914 653.188 103.305 651.969 102.085C650.75 100.866 650.141 99.4442 650.141 97.8188C650.141 96.1934 650.75 94.7712 651.969 93.5522C653.188 92.3331 654.611 91.7236 656.236 91.7236H662.331V30.7712H656.236C654.611 30.7712 653.188 30.1617 651.969 28.9426C650.75 27.7236 650.141 26.3014 650.141 24.676C650.141 23.0506 650.75 21.6283 651.969 20.4093C653.188 19.1903 654.611 18.5807 656.236 18.5807H668.426C670.052 18.5807 671.474 19.1903 672.693 20.4093C673.912 21.6283 674.522 23.0506 674.522 24.676V91.7236H680.617C682.242 91.7236 683.665 92.3331 684.884 93.5522C686.103 94.7712 686.712 96.1934 686.712 97.8188C686.712 99.4442 686.103 100.866 684.884 102.085C683.665 103.305 682.242 103.914 680.617 103.914H656.236ZM202.248 132.057C201.029 132.057 199.962 131.6 199.048 130.685C198.134 129.771 197.676 128.705 197.676 127.485C197.676 126.266 198.134 125.2 199.048 124.285C199.962 123.371 201.029 122.914 202.248 122.914H238.819C240.038 122.914 241.105 123.371 242.019 124.285C242.934 125.2 243.391 126.266 243.391 127.485C243.391 128.705 242.934 129.771 242.019 130.685C241.105 131.6 240.038 132.057 238.819 132.057H225.105V182.343C225.105 183.562 224.648 184.628 223.734 185.543C222.819 186.457 221.753 186.914 220.534 186.914C219.315 186.914 218.248 186.457 217.334 185.543C216.419 184.628 215.962 183.562 215.962 182.343V132.057H202.248ZM284.52 186.914C280.863 186.914 277.663 185.543 274.92 182.8C272.787 185.543 269.892 186.914 266.234 186.914C262.577 186.914 259.377 185.543 256.634 182.8C253.892 180.057 252.52 176.857 252.52 173.2V145.771C252.52 144.552 252.977 143.485 253.892 142.571C254.806 141.657 255.873 141.2 257.092 141.2C258.311 141.2 259.377 141.657 260.292 142.571C261.206 143.485 261.663 144.552 261.663 145.771V173.2C261.663 174.419 262.12 175.485 263.034 176.4C263.949 177.314 265.015 177.771 266.234 177.771C267.453 177.771 268.52 177.314 269.434 176.4C270.349 175.485 270.806 174.419 270.806 173.2V154.914C270.806 153.695 271.263 152.628 272.177 151.714C273.092 150.8 274.158 150.343 275.377 150.343C276.596 150.343 277.663 150.8 278.577 151.714C279.492 152.628 279.949 153.695 279.949 154.914V173.2C279.949 174.419 280.406 175.485 281.32 176.4C282.234 177.314 283.301 177.771 284.52 177.771C285.739 177.771 286.806 177.314 287.72 176.4C288.634 175.485 289.092 174.419 289.092 173.2V145.771C289.092 144.552 289.549 143.485 290.463 142.571C291.377 141.657 292.444 141.2 293.663 141.2C294.882 141.2 295.949 141.657 296.863 142.571C297.777 143.485 298.234 144.552 298.234 145.771V173.2C298.234 176.857 296.863 180.057 294.12 182.8C291.377 185.543 288.177 186.914 284.52 186.914ZM325.65 150.343H321.078C319.859 150.343 318.792 149.885 317.878 148.971C316.964 148.057 316.507 146.99 316.507 145.771C316.507 144.552 316.964 143.485 317.878 142.571C318.792 141.657 319.859 141.2 321.078 141.2H330.221C331.44 141.2 332.507 141.657 333.421 142.571C334.335 143.485 334.792 144.552 334.792 145.771V177.771H339.364C340.583 177.771 341.65 178.228 342.564 179.143C343.478 180.057 343.935 181.124 343.935 182.343C343.935 183.562 343.478 184.628 342.564 185.543C341.65 186.457 340.583 186.914 339.364 186.914H321.078C319.859 186.914 318.792 186.457 317.878 185.543C316.964 184.628 316.507 183.562 316.507 182.343C316.507 181.124 316.964 180.057 317.878 179.143C318.792 178.228 319.859 177.771 321.078 177.771H325.65V150.343ZM330.221 132.057C329.002 132.057 327.935 131.6 327.021 130.685C326.107 129.771 325.65 128.705 325.65 127.485C325.65 126.266 326.107 125.2 327.021 124.285C327.935 123.371 329.002 122.914 330.221 122.914C331.44 122.914 332.507 123.371 333.421 124.285C334.335 125.2 334.792 126.266 334.792 127.485C334.792 128.705 334.335 129.771 333.421 130.685C332.507 131.6 331.44 132.057 330.221 132.057ZM371.351 150.343V182.343C371.351 183.562 370.893 184.628 369.979 185.543C369.065 186.457 367.998 186.914 366.779 186.914C365.56 186.914 364.493 186.457 363.579 185.543C362.665 184.628 362.208 183.562 362.208 182.343V145.771C362.208 144.552 362.665 143.485 363.579 142.571C364.493 141.657 365.56 141.2 366.779 141.2H394.208C397.865 141.2 401.065 142.571 403.808 145.314C406.551 148.057 407.922 151.257 407.922 154.914V182.343C407.922 183.562 407.465 184.628 406.551 185.543C405.636 186.457 404.57 186.914 403.351 186.914C402.131 186.914 401.065 186.457 400.151 185.543C399.236 184.628 398.779 183.562 398.779 182.343V154.914C398.779 153.695 398.322 152.628 397.408 151.714C396.493 150.8 395.427 150.343 394.208 150.343H371.351ZM485.609 159.485C481.343 159.485 477.99 158.266 475.552 155.828C473.114 153.39 471.895 150.038 471.895 145.771V136.628C471.895 132.971 473.114 129.771 475.552 127.028C477.99 124.285 481.343 122.914 485.609 122.914H503.895C507.552 122.914 510.752 124.285 513.495 127.028C516.238 129.771 517.609 132.971 517.609 136.628C517.609 137.847 517.152 138.914 516.238 139.828C515.324 140.743 514.257 141.2 513.038 141.2C511.819 141.2 510.752 140.743 509.838 139.828C508.924 138.914 508.467 137.847 508.467 136.628C508.467 135.409 508.009 134.343 507.095 133.428C506.181 132.514 505.114 132.057 503.895 132.057H485.609C484.39 132.057 483.324 132.514 482.409 133.428C481.495 134.343 481.038 135.409 481.038 136.628V145.771C481.038 146.99 481.495 148.057 482.409 148.971C483.324 149.885 484.39 150.343 485.609 150.343H503.895C507.552 150.343 510.752 151.714 513.495 154.457C516.238 157.2 517.609 160.4 517.609 164.057V173.2C517.609 177.466 516.238 180.819 513.495 183.257C510.752 185.695 507.552 186.914 503.895 186.914H485.609C481.952 186.914 478.752 185.543 476.009 182.8C473.267 180.057 471.895 176.857 471.895 173.2C471.895 171.981 472.352 170.914 473.267 170C474.181 169.085 475.248 168.628 476.467 168.628C477.686 168.628 478.752 169.085 479.667 170C480.581 170.914 481.038 171.981 481.038 173.2C481.038 174.419 481.495 175.485 482.409 176.4C483.324 177.314 484.39 177.771 485.609 177.771H503.895C505.114 177.771 506.181 177.314 507.095 176.4C508.009 175.485 508.467 174.419 508.467 173.2V164.057C508.467 162.838 508.009 161.771 507.095 160.857C506.181 159.943 505.114 159.485 503.895 159.485H485.609ZM540.453 186.914C536.796 186.914 533.596 185.543 530.853 182.8C528.11 180.057 526.739 176.857 526.739 173.2C526.739 169.543 528.11 166.343 530.853 163.6C533.596 160.857 536.796 159.485 540.453 159.485H563.31V154.914C563.31 153.695 562.853 152.628 561.939 151.714C561.025 150.8 559.958 150.343 558.739 150.343H540.453C539.234 150.343 538.167 149.885 537.253 148.971C536.339 148.057 535.882 146.99 535.882 145.771C535.882 144.552 536.339 143.485 537.253 142.571C538.167 141.657 539.234 141.2 540.453 141.2H558.739C562.396 141.2 565.596 142.571 568.339 145.314C571.082 148.057 572.453 151.257 572.453 154.914V182.343C572.453 183.562 571.996 184.628 571.082 185.543C570.167 186.457 569.101 186.914 567.882 186.914H540.453ZM563.31 168.628H540.453C539.234 168.628 538.167 169.085 537.253 170C536.339 170.914 535.882 171.981 535.882 173.2C535.882 174.419 536.339 175.485 537.253 176.4C538.167 177.314 539.234 177.771 540.453 177.771H563.31V168.628ZM613.583 150.343H609.011V182.343C609.011 183.562 608.554 184.628 607.64 185.543C606.726 186.457 605.659 186.914 604.44 186.914C603.221 186.914 602.154 186.457 601.24 185.543C600.326 184.628 599.868 183.562 599.868 182.343V150.343H595.297C594.078 150.343 593.011 149.885 592.097 148.971C591.183 148.057 590.726 146.99 590.726 145.771C590.726 144.552 591.183 143.485 592.097 142.571C593.011 141.657 594.078 141.2 595.297 141.2H599.868V136.628C599.868 132.971 601.24 129.771 603.983 127.028C606.726 124.285 609.926 122.914 613.583 122.914H622.726C623.945 122.914 625.011 123.371 625.926 124.285C626.84 125.2 627.297 126.266 627.297 127.485C627.297 128.705 626.84 129.771 625.926 130.685C625.011 131.6 623.945 132.057 622.726 132.057H613.583C612.364 132.057 611.297 132.514 610.383 133.428C609.468 134.343 609.011 135.409 609.011 136.628V141.2H613.583C614.802 141.2 615.868 141.657 616.783 142.571C617.697 143.485 618.154 144.552 618.154 145.771C618.154 146.99 617.697 148.057 616.783 148.971C615.868 149.885 614.802 150.343 613.583 150.343ZM650.141 186.914C646.484 186.914 643.284 185.543 640.541 182.8C637.798 180.057 636.426 176.857 636.426 173.2V154.914C636.426 151.257 637.798 148.057 640.541 145.314C643.284 142.571 646.484 141.2 650.141 141.2H668.426C672.084 141.2 675.284 142.571 678.026 145.314C680.769 148.057 682.141 151.257 682.141 154.914V164.057C682.141 165.276 681.684 166.343 680.769 167.257C679.855 168.171 678.788 168.628 677.569 168.628H645.569V173.2C645.569 174.419 646.026 175.485 646.941 176.4C647.855 177.314 648.922 177.771 650.141 177.771H668.426C669.645 177.771 670.712 178.228 671.626 179.143C672.541 180.057 672.998 181.124 672.998 182.343C672.998 183.562 672.541 184.628 671.626 185.543C670.712 186.457 669.645 186.914 668.426 186.914H650.141ZM645.569 159.485H672.998V154.914C672.998 153.695 672.541 152.628 671.626 151.714C670.712 150.8 669.645 150.343 668.426 150.343H650.141C648.922 150.343 647.855 150.8 646.941 151.714C646.026 152.628 645.569 153.695 645.569 154.914V159.485Z" fill="#B64BB1"/>
<defs>
<linearGradient id="paint0_linear_701_265" x1="105.071" y1="-2.39199" x2="165.162" y2="224.466" gradientUnits="userSpaceOnUse">
<stop stop-color="#88F96D"/>
<stop offset="1" stop-color="#66E773"/>
</linearGradient>
<linearGradient id="paint1_linear_701_265" x1="75.2668" y1="109.495" x2="75.2712" y2="128.966" gradientUnits="userSpaceOnUse">
<stop stop-color="#E061BD"/>
<stop offset="1" stop-color="#E061BD"/>
</linearGradient>
<linearGradient id="paint2_linear_701_265" x1="49.808" y1="5.62381" x2="58.1655" y2="16.2865" gradientUnits="userSpaceOnUse">
<stop stop-color="#7582F9"/>
<stop offset="1" stop-color="#9B66D4"/>
</linearGradient>
<linearGradient id="paint3_linear_701_265" x1="23.0761" y1="92.6888" x2="37.8099" y2="92.734" gradientUnits="userSpaceOnUse">
<stop stop-color="#88F96D"/>
<stop offset="1" stop-color="#66E773"/>
</linearGradient>
</defs>
</svg>
