<svg width="1519" height="264" viewBox="0 0 1519 264" fill="none" xmlns="http://www.w3.org/2000/svg">
<g filter="url(#filter0_d_21_333)">
<path d="M437.619 49.9048V220.762C437.619 224.559 436.195 227.881 433.348 230.729C430.5 233.576 427.178 235 423.381 235C419.584 235 416.262 233.576 413.414 230.729C410.567 227.881 409.143 224.559 409.143 220.762V149.571H323.714V220.762C323.714 224.559 322.29 227.881 319.443 230.729C316.595 233.576 313.273 235 309.476 235C305.679 235 302.357 233.576 299.51 230.729C296.662 227.881 295.238 224.559 295.238 220.762V49.9048C295.238 46.1079 296.662 42.7857 299.51 39.9381C302.357 37.0905 305.679 35.6667 309.476 35.6667C313.273 35.6667 316.595 37.0905 319.443 39.9381C322.29 42.7857 323.714 46.1079 323.714 49.9048V121.095H409.143V49.9048C409.143 46.1079 410.567 42.7857 413.414 39.9381C416.262 37.0905 419.584 35.6667 423.381 35.6667C427.178 35.6667 430.5 37.0905 433.348 39.9381C436.195 42.7857 437.619 46.1079 437.619 49.9048ZM579.958 206.524V106.857C579.958 103.06 581.382 99.7381 584.23 96.8905C587.077 94.0429 590.4 92.619 594.196 92.619C597.993 92.619 601.315 94.0429 604.163 96.8905C607.011 99.7381 608.434 103.06 608.434 106.857V220.762C608.434 224.559 607.011 227.881 604.163 230.729C601.315 233.576 597.993 235 594.196 235H508.768C497.377 235 487.411 230.729 478.868 222.186C470.325 213.643 466.054 203.676 466.054 192.286V106.857C466.054 103.06 467.477 99.7381 470.325 96.8905C473.173 94.0429 476.495 92.619 480.292 92.619C484.088 92.619 487.411 94.0429 490.258 96.8905C493.106 99.7381 494.53 103.06 494.53 106.857V192.286C494.53 196.083 495.954 199.405 498.801 202.252C501.649 205.1 504.971 206.524 508.768 206.524H579.958ZM665.345 121.095V220.762C665.345 224.559 663.921 227.881 661.074 230.729C658.226 233.576 654.904 235 651.107 235C647.31 235 643.988 233.576 641.14 230.729C638.293 227.881 636.869 224.559 636.869 220.762V106.857C636.869 103.06 638.293 99.7381 641.14 96.8905C643.988 94.0429 647.31 92.619 651.107 92.619H679.583C690.974 92.619 700.94 96.8905 709.483 105.433C716.128 96.8905 725.145 92.619 736.536 92.619C747.926 92.619 757.893 96.8905 766.436 105.433C774.978 113.976 779.25 123.943 779.25 135.333V220.762C779.25 224.559 777.826 227.881 774.978 230.729C772.131 233.576 768.809 235 765.012 235C761.215 235 757.893 233.576 755.045 230.729C752.198 227.881 750.774 224.559 750.774 220.762V135.333C750.774 131.537 749.35 128.214 746.502 125.367C743.655 122.519 740.332 121.095 736.536 121.095C732.739 121.095 729.417 122.519 726.569 125.367C723.721 128.214 722.298 131.537 722.298 135.333V220.762C722.298 224.559 720.874 227.881 718.026 230.729C715.178 233.576 711.856 235 708.059 235C704.263 235 700.94 233.576 698.093 230.729C695.245 227.881 693.821 224.559 693.821 220.762V135.333C693.821 131.537 692.398 128.214 689.55 125.367C686.702 122.519 683.38 121.095 679.583 121.095H665.345ZM850.399 235C839.008 235 829.042 230.729 820.499 222.186C811.956 213.643 807.684 203.676 807.684 192.286C807.684 180.895 811.956 170.929 820.499 162.386C829.042 153.843 839.008 149.571 850.399 149.571H921.589V135.333C921.589 131.537 920.165 128.214 917.318 125.367C914.47 122.519 911.148 121.095 907.351 121.095H850.399C846.602 121.095 843.28 119.671 840.432 116.824C837.584 113.976 836.161 110.654 836.161 106.857C836.161 103.06 837.584 99.7381 840.432 96.8905C843.28 94.0429 846.602 92.619 850.399 92.619H907.351C918.742 92.619 928.708 96.8905 937.251 105.433C945.794 113.976 950.065 123.943 950.065 135.333V220.762C950.065 224.559 948.642 227.881 945.794 230.729C942.946 233.576 939.624 235 935.827 235H850.399ZM921.589 178.048H850.399C846.602 178.048 843.28 179.471 840.432 182.319C837.584 185.167 836.161 188.489 836.161 192.286C836.161 196.083 837.584 199.405 840.432 202.252C843.28 205.1 846.602 206.524 850.399 206.524H921.589V178.048ZM1006.98 121.095V220.762C1006.98 224.559 1005.55 227.881 1002.7 230.729C999.857 233.576 996.535 235 992.738 235C988.941 235 985.619 233.576 982.771 230.729C979.924 227.881 978.5 224.559 978.5 220.762V106.857C978.5 103.06 979.924 99.7381 982.771 96.8905C985.619 94.0429 988.941 92.619 992.738 92.619H1078.17C1089.56 92.619 1099.52 96.8905 1108.07 105.433C1116.61 113.976 1120.88 123.943 1120.88 135.333V220.762C1120.88 224.559 1119.46 227.881 1116.61 230.729C1113.76 233.576 1110.44 235 1106.64 235C1102.85 235 1099.52 233.576 1096.68 230.729C1093.83 227.881 1092.4 224.559 1092.4 220.762V135.333C1092.4 131.537 1090.98 128.214 1088.13 125.367C1085.29 122.519 1081.96 121.095 1078.17 121.095H1006.98ZM1248.98 149.571H1177.79V206.524C1177.79 219.813 1176.37 227.881 1173.52 230.729C1170.67 233.576 1167.35 235 1163.55 235C1159.76 235 1156.43 233.576 1153.59 230.729C1150.74 227.881 1149.32 224.559 1149.32 220.762V49.9048C1149.32 46.1079 1150.74 42.7857 1153.59 39.9381C1156.43 37.0905 1159.76 35.6667 1163.55 35.6667H1277.46C1281.25 35.6667 1284.58 37.0905 1287.42 39.9381C1290.27 42.7857 1291.7 46.1079 1291.7 49.9048C1291.7 53.7016 1290.27 57.0238 1287.42 59.8714C1284.58 62.7191 1281.25 64.1429 1277.46 64.1429H1177.79V121.095H1248.98C1252.78 121.095 1256.1 122.519 1258.95 125.367C1261.8 128.214 1263.22 131.537 1263.22 135.333C1263.22 139.13 1261.8 142.452 1258.95 145.3C1256.1 148.148 1252.78 149.571 1248.98 149.571ZM1362.84 149.571C1349.56 149.571 1339.11 145.775 1331.52 138.181C1323.93 130.587 1320.13 120.146 1320.13 106.857V78.381C1320.13 66.9905 1323.93 57.0238 1331.52 48.481C1339.11 39.9381 1349.56 35.6667 1362.84 35.6667H1419.8C1431.19 35.6667 1441.15 39.9381 1449.7 48.481C1458.24 57.0238 1462.51 66.9905 1462.51 78.381C1462.51 82.1778 1461.09 85.5 1458.24 88.3476C1455.39 91.1952 1452.07 92.619 1448.27 92.619C1444.48 92.619 1441.15 91.1952 1438.31 88.3476C1435.46 85.5 1434.04 82.1778 1434.04 78.381C1434.04 74.5841 1432.61 71.2619 1429.76 68.4143C1426.92 65.5667 1423.59 64.1429 1419.8 64.1429H1362.84C1359.05 64.1429 1355.73 65.5667 1352.88 68.4143C1350.03 71.2619 1348.61 74.5841 1348.61 78.381V106.857C1348.61 110.654 1350.03 113.976 1352.88 116.824C1355.73 119.671 1359.05 121.095 1362.84 121.095H1419.8C1431.19 121.095 1441.15 125.367 1449.7 133.91C1458.24 142.452 1462.51 152.419 1462.51 163.81V192.286C1462.51 205.575 1458.24 216.016 1449.7 223.61C1441.15 231.203 1431.19 235 1419.8 235H1362.84C1351.45 235 1341.49 230.729 1332.94 222.186C1324.4 213.643 1320.13 203.676 1320.13 192.286C1320.13 188.489 1321.55 185.167 1324.4 182.319C1327.25 179.471 1330.57 178.048 1334.37 178.048C1338.17 178.048 1341.49 179.471 1344.34 182.319C1347.18 185.167 1348.61 188.489 1348.61 192.286C1348.61 196.083 1350.03 199.405 1352.88 202.252C1355.73 205.1 1359.05 206.524 1362.84 206.524H1419.8C1423.59 206.524 1426.92 205.1 1429.76 202.252C1432.61 199.405 1434.04 196.083 1434.04 192.286V163.81C1434.04 160.013 1432.61 156.69 1429.76 153.843C1426.92 150.995 1423.59 149.571 1419.8 149.571H1362.84Z" fill="#B64BB1"/>
<path d="M100.966 226.207V193.737C100.966 178.218 95.542 162.599 84.389 145.987C83.1613 144.156 81.9201 141.827 80.7688 139.192H91.0718C94.0489 139.192 96.4684 136.772 96.4684 133.795V116.706H136.043C139.02 116.706 141.44 114.286 141.44 111.309V93.3206C141.44 90.3434 139.016 87.924 136.043 87.924H118.954V71.7342H136.043C139.02 71.7342 141.44 69.3148 141.44 66.3376V27.5947C144.52 27.1765 147.623 26.9651 150.709 26.9651C185.642 26.9651 214.307 53.93 221.566 73.3892C229.314 94.1525 226.746 100.939 226.153 102.09C225.253 103.839 225.366 105.931 226.445 107.554L246.183 137.222C246.93 138.458 247.699 141.768 246.997 143.675C246.741 144.368 246.394 144.606 245.954 144.75C240.593 146.522 235.646 147.606 233.177 148.091C230.668 148.586 228.847 150.812 228.847 153.38V178.645C228.847 178.861 228.424 200.348 213.313 200.348H184.909C181.932 200.348 179.513 202.768 179.513 205.745V231.594L100.966 226.207Z" fill="url(#paint0_linear_21_333)"/>
<path d="M150.709 30.1085C184.212 30.1085 211.672 55.8817 218.616 74.4864C226.18 94.7596 223.383 100.588 223.351 100.646C221.93 103.408 222.11 106.722 223.823 109.294L243.453 138.805C243.831 139.511 244.168 141.062 244.128 142.034C239.248 143.594 234.832 144.557 232.561 145.006C228.581 145.793 225.694 149.315 225.694 153.384V178.649C225.694 178.834 225.163 197.205 213.309 197.205H184.905C180.192 197.205 176.36 201.036 176.36 205.749V228.231L104.114 223.27V193.737C104.114 177.575 98.5191 161.38 87.0019 144.228C86.6151 143.653 86.2239 143.019 85.8371 142.339H91.0718C95.7848 142.339 99.6164 138.508 99.6164 133.795V119.854H115.806H136.043C140.756 119.854 144.588 116.022 144.588 111.309V93.3205C144.588 88.6075 140.756 84.7759 136.043 84.7759H122.102V74.8822H136.043C140.756 74.8822 144.588 71.0506 144.588 66.3376V59.7043V48.349V30.4008C146.63 30.2075 148.676 30.1085 150.709 30.1085ZM150.709 23.8125C146.652 23.8125 142.51 24.1588 138.292 24.8963V48.349V59.7043V66.3376C138.292 67.5788 137.285 68.5861 136.043 68.5861H118.055C116.814 68.5861 115.806 69.5935 115.806 70.8347V88.8233C115.806 90.0645 116.814 91.0719 118.055 91.0719H136.043C137.285 91.0719 138.292 92.0793 138.292 93.3205V111.309C138.292 112.55 137.285 113.558 136.043 113.558H115.806H95.569C94.3278 113.558 93.3204 114.565 93.3204 115.806V133.795C93.3204 135.036 92.313 136.043 91.0718 136.043H79.4197C77.8052 136.043 76.7349 137.698 77.351 139.191C78.7541 142.6 80.2697 145.496 81.7762 147.741C94.9663 167.384 97.8175 182.423 97.8175 193.737V227.048C97.8175 228.226 98.726 229.202 99.9042 229.292L180.246 234.805C180.3 234.81 180.358 234.81 180.412 234.81C181.64 234.81 182.656 233.811 182.656 232.561V205.749C182.656 204.508 183.664 203.501 184.905 203.501H213.309C228.253 203.501 231.99 186.191 231.99 178.649V153.384C231.99 152.31 232.728 151.392 233.784 151.185C236.366 150.677 241.425 149.566 246.934 147.745C252.007 146.068 250.514 138.314 248.8 135.481L229.067 105.814C228.608 105.125 228.572 104.271 228.95 103.538C230.263 100.997 232.26 93.0507 224.516 72.2918C217.158 52.5763 187.747 23.8125 150.709 23.8125Z" fill="#472B29"/>
<path d="M184.055 201.252C167.451 201.252 152.593 196.027 142.222 186.542C141.305 185.706 141.242 184.28 142.079 183.367C142.919 182.45 144.341 182.387 145.258 183.228C154.796 191.952 168.576 196.76 184.055 196.76C185.296 196.76 186.303 197.767 186.303 199.008C186.303 200.249 185.301 201.252 184.055 201.252Z" fill="#472B29"/>
<path d="M137.95 180.7C137.258 180.7 136.574 180.381 136.138 179.783C134.46 177.503 133.008 175.07 131.816 172.551C131.285 171.427 131.767 170.087 132.886 169.556C134.006 169.021 135.351 169.507 135.881 170.627C136.952 172.884 138.256 175.074 139.758 177.121C140.496 178.123 140.28 179.531 139.277 180.264C138.877 180.556 138.413 180.7 137.95 180.7Z" fill="#472B29"/>
<path d="M174.08 79.8291H156.465C155.12 79.8291 154.027 78.7363 154.027 77.3917V59.7763C154.027 58.4317 155.12 57.3389 156.465 57.3389H174.08C175.425 57.3389 176.518 58.4317 176.518 59.7763V77.3917C176.518 78.7363 175.425 79.8291 174.08 79.8291Z" fill="#EE3E54"/>
<path d="M174.08 80.9534H156.465C154.5 80.9534 152.903 79.3569 152.903 77.3917V59.7763C152.903 57.8111 154.5 56.2146 156.465 56.2146H174.08C176.046 56.2146 177.642 57.8111 177.642 59.7763V77.3917C177.642 79.3569 176.046 80.9534 174.08 80.9534ZM156.469 58.4677C155.745 58.4677 155.156 59.0568 155.156 59.7808V77.3962C155.156 78.1202 155.745 78.7093 156.469 78.7093H174.085C174.809 78.7093 175.398 78.1202 175.398 77.3962V59.7808C175.398 59.0568 174.809 58.4677 174.085 58.4677H156.469Z" fill="#472B29"/>
<path d="M205.56 111.309H187.945C186.6 111.309 185.508 110.216 185.508 108.872V91.2564C185.508 89.9117 186.6 88.8189 187.945 88.8189H205.56C206.905 88.8189 207.998 89.9117 207.998 91.2564V108.872C207.998 110.216 206.905 111.309 205.56 111.309Z" fill="#6148FF"/>
<path d="M205.56 112.433H187.945C185.98 112.433 184.383 110.837 184.383 108.872V91.2564C184.383 89.2911 185.98 87.6946 187.945 87.6946H205.56C207.526 87.6946 209.122 89.2911 209.122 91.2564V108.872C209.122 110.837 207.526 112.433 205.56 112.433ZM187.949 89.9477C187.225 89.9477 186.636 90.5368 186.636 91.2609V108.876C186.636 109.6 187.225 110.189 187.949 110.189H205.565C206.289 110.189 206.878 109.6 206.878 108.876V91.2609C206.878 90.5368 206.289 89.9477 205.565 89.9477H187.949Z" fill="#472B29"/>
<path d="M138.103 156.281H120.488C119.143 156.281 118.05 155.188 118.05 153.843V136.228C118.05 134.883 119.143 133.79 120.488 133.79H138.103C139.448 133.79 140.54 134.883 140.54 136.228V153.843C140.54 155.188 139.448 156.281 138.103 156.281Z" fill="url(#paint1_linear_21_333)"/>
<path d="M138.103 157.405H120.488C118.522 157.405 116.926 155.808 116.926 153.843V136.228C116.926 134.263 118.522 132.666 120.488 132.666H138.103C140.068 132.666 141.665 134.263 141.665 136.228V153.843C141.665 155.808 140.068 157.405 138.103 157.405ZM120.492 134.919C119.768 134.919 119.179 135.508 119.179 136.232V153.848C119.179 154.572 119.768 155.161 120.492 155.161H138.108C138.832 155.161 139.421 154.572 139.421 153.848V136.232C139.421 135.508 138.832 134.919 138.108 134.919H120.492Z" fill="#472B29"/>
<path d="M173.595 142.789H152.458C150.843 142.789 149.535 141.481 149.535 139.866V118.729C149.535 117.115 150.843 115.806 152.458 115.806H173.595C175.209 115.806 176.518 117.115 176.518 118.729V139.866C176.518 141.481 175.209 142.789 173.595 142.789Z" fill="#1766FF"/>
<path d="M173.595 143.913H152.458C150.227 143.913 148.41 142.097 148.41 139.866V118.729C148.41 116.499 150.227 114.682 152.458 114.682H173.595C175.825 114.682 177.642 116.499 177.642 118.729V139.866C177.642 142.097 175.825 143.913 173.595 143.913ZM152.458 116.931C151.464 116.931 150.659 117.736 150.659 118.729V139.866C150.659 140.855 151.464 141.665 152.458 141.665H173.595C174.588 141.665 175.393 140.86 175.393 139.866V118.729C175.393 117.74 174.588 116.931 173.595 116.931H152.458Z" fill="#472B29"/>
<path d="M170.073 170.896H155.979C154.288 170.896 152.908 169.516 152.908 167.825V162.091C152.908 161.47 153.411 160.967 154.032 160.967C154.653 160.967 155.156 161.47 155.156 162.091V167.825C155.156 168.279 155.525 168.648 155.979 168.648H170.073C170.528 168.648 170.896 168.279 170.896 167.825V153.735C170.896 153.281 170.528 152.912 170.073 152.912H155.979C155.525 152.912 155.156 153.281 155.156 153.735V157.499C155.156 158.12 154.653 158.624 154.032 158.624C153.411 158.624 152.908 158.12 152.908 157.499V153.735C152.908 152.04 154.288 150.664 155.979 150.664H170.073C171.764 150.664 173.145 152.044 173.145 153.735V167.825C173.145 169.516 171.764 170.896 170.073 170.896Z" fill="#472B29"/>
<path d="M170.073 107.936C169.453 107.936 168.949 107.433 168.949 106.812C168.949 106.191 169.453 105.688 170.073 105.688C170.527 105.688 170.896 105.319 170.896 104.865V90.7752C170.896 90.3209 170.527 89.9522 170.073 89.9522H161.808C161.187 89.9522 160.683 89.4485 160.683 88.8279C160.683 88.2073 161.187 87.7036 161.808 87.7036H170.073C171.764 87.7036 173.145 89.0842 173.145 90.7752V104.865C173.145 106.556 171.764 107.936 170.073 107.936Z" fill="#472B29"/>
<path d="M164.996 107.936H155.984C154.293 107.936 152.912 106.556 152.912 104.865V90.7752C152.912 89.0797 154.293 87.7036 155.984 87.7036C156.604 87.7036 157.108 88.2073 157.108 88.8279C157.108 89.4485 156.604 89.9522 155.984 89.9522C155.53 89.9522 155.161 90.3209 155.161 90.7752V104.865C155.161 105.319 155.53 105.688 155.984 105.688H164.996C165.617 105.688 166.12 106.191 166.12 106.812C166.12 107.433 165.617 107.936 164.996 107.936Z" fill="#472B29"/>
<path d="M209.572 148.411H201.909C201.288 148.411 200.784 147.907 200.784 147.286C200.784 146.666 201.288 146.162 201.909 146.162H209.572C210.566 146.162 211.371 145.357 211.371 144.363C211.371 143.743 211.874 143.239 212.495 143.239C213.116 143.239 213.619 143.743 213.619 144.363C213.619 146.594 211.802 148.411 209.572 148.411Z" fill="#472B29"/>
<path d="M212.495 141.197C211.874 141.197 211.371 140.694 211.371 140.073V123.227C211.371 122.237 210.566 121.428 209.572 121.428H197.69C197.07 121.428 196.566 120.924 196.566 120.303C196.566 119.683 197.07 119.179 197.69 119.179H209.572C211.802 119.179 213.619 120.996 213.619 123.227V140.073C213.619 140.694 213.116 141.197 212.495 141.197Z" fill="#472B29"/>
<path d="M194.79 148.411H188.435C186.205 148.411 184.388 146.594 184.388 144.363V123.227C184.388 120.996 186.205 119.179 188.435 119.179H191.79C192.411 119.179 192.914 119.683 192.914 120.303C192.914 120.924 192.411 121.428 191.79 121.428H188.435C187.441 121.428 186.636 122.233 186.636 123.227V144.363C186.636 145.353 187.441 146.162 188.435 146.162H194.79C195.41 146.162 195.914 146.666 195.914 147.286C195.914 147.907 195.41 148.411 194.79 148.411Z" fill="#472B29"/>
<path d="M109.249 57.3433L109.06 39.5436L126.86 39.3547L127.049 57.1545L126.86 57.3433H109.249Z" fill="#1766FF"/>
<path d="M124.8 41.6034V55.0948H111.309V41.6034H124.8ZM126.86 37.1062H109.245C107.905 37.1062 106.812 38.199 106.812 39.5437V57.159C106.812 58.4992 107.905 59.592 109.249 59.592H126.865C128.205 59.592 129.298 58.4992 129.298 57.1545V39.5392C129.298 38.199 128.205 37.1062 126.86 37.1062Z" fill="#472B29"/>
<path d="M95.7578 25.8632L95.569 8.06351L113.369 7.87463L113.558 25.6744L113.369 25.8632H95.7578Z" fill="url(#paint2_linear_21_333)"/>
<path d="M111.309 10.1233V23.6147H97.8176V10.1233H111.309ZM113.369 5.6261H95.7534C94.4132 5.6261 93.3204 6.71891 93.3204 8.06355V25.6789C93.3204 27.019 94.4132 28.1119 95.7579 28.1119H113.373C114.713 28.1119 115.806 27.0191 115.806 25.6744V8.05906C115.806 6.71891 114.713 5.6261 113.369 5.6261Z" fill="#472B29"/>
<path d="M69.2606 66.3377C68.8874 66.3377 68.5861 66.0364 68.5861 65.6631V44.5265C68.5861 44.1532 68.8874 43.8519 69.2606 43.8519H90.3972C90.7705 43.8519 91.0718 44.1532 91.0718 44.5265V65.6631C91.0718 66.0364 90.7705 66.3377 90.3972 66.3377H69.2606Z" fill="#7EF36F"/>
<path d="M88.8233 46.1004V64.089H70.8346V46.1004H88.8233ZM90.3972 41.6033H69.2606C67.6462 41.6033 66.3375 42.9119 66.3375 44.5264V65.663C66.3375 67.2775 67.6462 68.5862 69.2606 68.5862H90.3972C92.0117 68.5862 93.3204 67.2775 93.3204 65.663V44.5264C93.3204 42.9119 92.0117 41.6033 90.3972 41.6033Z" fill="#472B29"/>
<path d="M64.2778 124.801L64.0889 107.001L81.8887 106.812L82.0775 124.612L81.8887 124.801H64.2778Z" fill="url(#paint3_linear_21_333)"/>
<path d="M79.8289 109.061V122.552H66.3375V109.061H79.8289ZM81.8886 104.563H64.2733C62.9331 104.563 61.8403 105.656 61.8403 107.001V124.616C61.8403 125.956 62.9331 127.049 64.2778 127.049H81.8931C83.2333 127.049 84.3261 125.956 84.3261 124.612V106.996C84.3261 105.656 83.2333 104.563 81.8886 104.563Z" fill="#472B29"/>
<path d="M86.7635 97.8177L86.5746 80.018L104.374 79.8291L104.563 97.6288L104.374 97.8177H86.7635Z" fill="#FE316F"/>
<path d="M102.315 82.0777V95.5692H88.8232V82.0777H102.315ZM104.374 77.5806H86.759C85.4189 77.5806 84.3261 78.6734 84.3261 80.018V97.6334C84.3261 98.9735 85.4189 100.066 86.7635 100.066H104.379C105.719 100.066 106.812 98.9735 106.812 97.6289V80.0135C106.812 78.6734 105.719 77.5806 104.374 77.5806Z" fill="#472B29"/>
<path d="M185.741 53.9795C193.868 59.4795 201.544 67.6598 207.998 79.8291Z" fill="#F6CCA4"/>
<path d="M207.998 80.9534C207.598 80.9534 207.206 80.7376 207.004 80.3553C201.167 69.3508 193.8 60.7927 185.107 54.9104C184.595 54.5641 184.455 53.8626 184.806 53.3499C185.157 52.8372 185.858 52.7023 186.366 53.0486C195.365 59.1377 202.974 67.9701 208.987 79.2985C209.279 79.8471 209.073 80.5262 208.519 80.8185C208.358 80.9129 208.178 80.9534 207.998 80.9534Z" fill="#472B29"/>
<path d="M158.529 43.8518C164.591 44.7467 170.865 46.3252 177.035 49.118Z" fill="#F6CCA4"/>
<path d="M177.035 50.2424C176.878 50.2424 176.72 50.2109 176.572 50.1434C171.072 47.6565 165.117 45.9611 158.363 44.9627C157.751 44.8728 157.324 44.3016 157.414 43.6855C157.508 43.0739 158.084 42.6422 158.691 42.7366C165.653 43.7665 171.805 45.5158 177.498 48.0927C178.065 48.3491 178.317 49.0146 178.06 49.5813C177.871 49.995 177.462 50.2424 177.035 50.2424Z" fill="#472B29"/>
<path d="M37.2949 48.349L37.106 30.5492L54.9057 30.3604L55.0946 48.1601L54.9057 48.349H37.2949Z" fill="#EE3E54"/>
<path d="M52.846 32.609V46.1004H39.3546V32.609H52.846ZM54.9057 28.1118H37.2904C35.9502 28.1118 34.8574 29.2046 34.8574 30.5493V48.1646C34.8574 49.5048 35.9502 50.5976 37.2949 50.5976H54.9102C56.2504 50.5976 57.3432 49.5048 57.3432 48.1601V30.5448C57.3432 29.2046 56.2504 28.1118 54.9057 28.1118Z" fill="#472B29"/>
</g>
<defs>
<filter id="filter0_d_21_333" x="-7" y="-4" width="1533" height="278" filterUnits="userSpaceOnUse" color-interpolation-filters="sRGB">
<feFlood flood-opacity="0" result="BackgroundImageFix"/>
<feColorMatrix in="SourceAlpha" type="matrix" values="0 0 0 0 0 0 0 0 0 0 0 0 0 0 0 0 0 0 127 0" result="hardAlpha"/>
<feOffset dy="3"/>
<feGaussianBlur stdDeviation="3.5"/>
<feColorMatrix type="matrix" values="0 0 0 0 0.0745098 0 0 0 0 0.0666667 0 0 0 0 0.101961 0 0 0 0.14 0"/>
<feBlend mode="normal" in2="BackgroundImageFix" result="effect1_dropShadow_21_333"/>
<feBlend mode="normal" in="SourceGraphic" in2="effect1_dropShadow_21_333" result="shape"/>
</filter>
<linearGradient id="paint0_linear_21_333" x1="167.505" y1="2.82944" x2="232.855" y2="270.769" gradientUnits="userSpaceOnUse">
<stop stop-color="#88F96D"/>
<stop offset="1" stop-color="#66E773"/>
</linearGradient>
<linearGradient id="paint1_linear_21_333" x1="129.656" y1="133.661" x2="129.661" y2="156.428" gradientUnits="userSpaceOnUse">
<stop stop-color="#E061BD"/>
<stop offset="1" stop-color="#E061BD"/>
</linearGradient>
<linearGradient id="paint2_linear_21_333" x1="97.3261" y1="12.2022" x2="106.877" y2="25.4364" gradientUnits="userSpaceOnUse">
<stop stop-color="#7582F9"/>
<stop offset="1" stop-color="#9B66D4"/>
</linearGradient>
<linearGradient id="paint3_linear_21_333" x1="63.3789" y1="114.007" x2="82.0893" y2="114.07" gradientUnits="userSpaceOnUse">
<stop stop-color="#88F96D"/>
<stop offset="1" stop-color="#66E773"/>
</linearGradient>
</defs>
</svg>
