<svg width="500" height="500" viewBox="0 0 500 500" fill="none" xmlns="http://www.w3.org/2000/svg">
<path d="M436.17 277.755C437.67 274.675 439 271.435 440.15 268.04C453.315 229.19 433.405 182.65 391.485 171.415C386.955 114.5 346.955 75.45 301.78 68.79C250.075 61.165 202.71 94.01 186.95 146.215C167.955 139.485 149.445 140.305 132 150.5C124.085 154.16 116.845 159.56 110.35 166.665C100.815 177.095 94.615 190.26 92.09 204.14C88.35 204.73 84.675 205.32 81.21 206.56C61.01 213.805 48.265 228.715 44.77 251.175C42.595 265.16 46.985 279.11 49.435 284.745C59.11 307.02 81.545 319.645 104.34 316.305C105.475 316.14 107.125 316.65 108.1 317.47C109.305 353.07 126.59 384.555 152.52 402.54C194.125 431.4 247.655 422.51 281.425 382.935C295.895 397.735 313.115 404.925 333.345 402.315C353.46 399.72 369.08 388.62 380.475 370.57C385.74 371.985 390.73 374.025 395.89 374.59C416.1 376.8 432.375 368.67 444.55 350.59C444.965 349.97 445.565 349.495 446.08 348.95C447.82 344.96 449.56 340.97 451.3 336.98C452.075 330.925 453.445 324.865 453.515 318.82C453.71 302.54 447.055 287.7 436.17 277.755Z" fill="url(#paint0_linear_5_92)"/>
<path d="M372.535 197.115C372.535 197.115 314.08 197.115 313.725 197.115C300.225 197.115 289.285 186.17 289.285 172.67C289.285 160.895 297.615 151.065 308.705 148.75C308.575 147.72 308.49 146.675 308.49 145.61C308.49 131.63 319.825 120.295 333.805 120.295C342.06 120.295 349.37 124.265 353.99 130.38C355.17 114.815 369.075 102.81 385.34 104.8C397.235 106.255 407.07 115.45 409.26 127.23C409.96 131.01 409.89 134.675 409.19 138.115C412.38 134.68 416.92 132.52 421.975 132.52C431.225 132.52 438.78 139.725 439.375 148.825C443.575 147.895 448.145 147.955 452.96 149.765C462.16 153.22 468.71 161.88 469.095 171.7C469.64 185.645 458.495 197.125 444.67 197.125C443.62 197.125 439.93 197.125 439.08 197.125H388.325" fill="#FDFCEF"/>
<path d="M313.725 199.615H372.535C373.915 199.615 375.035 198.495 375.035 197.115C375.035 195.735 373.915 194.615 372.535 194.615H313.725C301.625 194.615 291.78 184.77 291.78 172.67C291.78 162.34 299.11 153.305 309.21 151.195C310.485 150.93 311.34 149.73 311.18 148.435C311.065 147.505 310.985 146.565 310.985 145.61C310.985 133.025 321.22 122.795 333.795 122.795C340.985 122.795 347.62 126.11 351.985 131.885C352.61 132.715 353.675 133.07 354.685 132.775C355.68 132.48 356.395 131.605 356.47 130.57C356.99 123.685 360.365 117.215 365.72 112.825C371.135 108.385 378 106.415 385.02 107.28C395.85 108.61 404.8 116.995 406.785 127.685C407.405 131.02 407.385 134.36 406.72 137.615C406.5 138.715 407.03 139.825 408.03 140.335C409.03 140.855 410.245 140.635 411.005 139.815C413.88 136.725 417.77 135.02 421.955 135.02C429.8 135.02 436.345 141.16 436.86 148.99C436.91 149.72 437.27 150.385 437.855 150.82C438.44 151.265 439.195 151.42 439.895 151.265C444.1 150.34 448.08 150.605 452.06 152.1C460.405 155.235 466.235 163.145 466.575 171.79C466.81 177.825 464.64 183.54 460.47 187.88C456.295 192.225 450.675 194.62 444.65 194.62H388.305C386.925 194.62 385.805 195.74 385.805 197.12C385.805 198.5 386.925 199.62 388.305 199.62H444.66C452.055 199.62 458.95 196.68 464.08 191.35C469.205 186.02 471.87 179.005 471.58 171.6C471.165 160.97 464.03 151.255 453.83 147.425C449.83 145.92 445.7 145.435 441.49 145.93C439.605 136.82 431.5 130.02 421.965 130.02C418.545 130.02 415.195 130.92 412.245 132.57C412.245 130.64 412.07 128.71 411.715 126.775C409.33 113.965 398.61 103.91 385.64 102.32C377.245 101.295 369.04 103.65 362.56 108.96C357.545 113.075 353.98 118.715 352.37 124.925C347.31 120.345 340.775 117.795 333.8 117.795C318.465 117.795 305.99 130.275 305.99 145.61C305.99 146.025 306 146.44 306.025 146.85C294.755 150.215 286.785 160.73 286.785 172.67C286.78 187.535 298.865 199.615 313.725 199.615Z" fill="#472B29"/>
<path d="M386.7 143.275C395.74 142.68 403.525 148.925 404.08 157.22C404.15 158.25 404.105 159.265 403.955 160.25C405.7 158.28 408.28 156.945 411.245 156.75C416.67 156.395 421.355 159.975 422.035 164.85C423.02 164.58 424.05 164.4 425.115 164.33C433.025 163.81 439.835 169.275 440.325 176.535" fill="#FDFCEF"/>
<path d="M440.32 177.78C440.35 177.78 440.38 177.78 440.405 177.775C441.095 177.73 441.615 177.135 441.57 176.445C441.035 168.51 433.63 162.5 425.03 163.075C424.345 163.12 423.665 163.205 422.985 163.34C421.615 158.5 416.705 155.115 411.155 155.505C409.03 155.64 407.04 156.3 405.335 157.415C405.335 157.32 405.325 157.23 405.32 157.135C404.72 148.16 396.385 141.335 386.61 142.03C385.92 142.075 385.4 142.67 385.445 143.36C385.49 144.05 386.065 144.635 386.775 144.52C395.03 143.995 402.315 149.705 402.825 157.305C402.885 158.225 402.845 159.155 402.71 160.07C402.625 160.615 402.915 161.155 403.415 161.39C403.915 161.625 404.51 161.5 404.88 161.085C406.495 159.26 408.78 158.165 411.315 158C416.07 157.83 420.19 160.78 420.785 165.02C420.835 165.375 421.035 165.695 421.335 165.895C421.635 166.09 422 166.15 422.355 166.055C423.29 165.8 424.24 165.64 425.19 165.57C432.39 165.11 438.625 170.05 439.065 176.615C439.12 177.275 439.67 177.78 440.32 177.78Z" fill="#472B29"/>
<path d="M303.825 151.615C312.32 147.61 322.145 150.445 325.77 157.95C326.22 158.88 326.555 159.845 326.775 160.82" fill="#FDFCEF"/>
<path d="M326.775 162.07C326.865 162.07 326.96 162.06 327.055 162.04C327.725 161.885 328.15 161.215 327.995 160.54C327.75 159.455 327.38 158.4 326.9 157.405C322.985 149.3 312.39 146.21 303.295 150.48C302.67 150.78 302.4 151.52 302.695 152.145C302.99 152.775 303.74 153.025 304.36 152.745C312.23 149.025 321.33 151.61 324.65 158.49C325.05 159.315 325.355 160.19 325.56 161.095C325.69 161.68 326.205 162.07 326.775 162.07Z" fill="#472B29"/>
<path d="M442.025 335H392.5C391.12 335 390 333.88 390 332.5C390 331.12 391.12 330 392.5 330H442.025C443.405 330 444.525 331.12 444.525 332.5C444.525 333.88 443.41 335 442.025 335Z" fill="white"/>
<path d="M457.5 335H452.5C451.12 335 450 333.88 450 332.5C450 331.12 451.12 330 452.5 330H457.5C458.88 330 460 331.12 460 332.5C460 333.88 458.885 335 457.5 335Z" fill="white"/>
<path d="M482.455 345H437.5C436.12 345 435 343.88 435 342.5C435 341.12 436.12 340 437.5 340H482.455C483.835 340 484.955 341.12 484.955 342.5C484.955 343.88 483.835 345 482.455 345Z" fill="white"/>
<path d="M427.5 345H422.5C421.12 345 420 343.88 420 342.5C420 341.12 421.12 340 422.5 340H427.5C428.88 340 430 341.12 430 342.5C430 343.88 428.885 345 427.5 345Z" fill="white"/>
<path d="M412.5 345H402.5C401.12 345 400 343.88 400 342.5C400 341.12 401.12 340 402.5 340H412.5C413.88 340 415 341.12 415 342.5C415 343.88 413.885 345 412.5 345Z" fill="white"/>
<path d="M442.5 355H432.5C431.12 355 430 353.88 430 352.5C430 351.12 431.12 350 432.5 350H442.5C443.88 350 445 351.12 445 352.5C445 353.88 443.88 355 442.5 355Z" fill="white"/>
<path d="M457.5 310C456.615 310 453.385 310 452.5 310C451.12 310 450 311.12 450 312.5C450 313.88 451.12 315 452.5 315C453.385 315 456.615 315 457.5 315C458.88 315 460 313.88 460 312.5C460 311.12 458.88 310 457.5 310Z" fill="white"/>
<path d="M457.5 320C456.615 320 433.385 320 432.5 320C431.12 320 430 321.12 430 322.5C430 323.88 431.12 325 432.5 325C433.385 325 456.615 325 457.5 325C458.88 325 460 323.88 460 322.5C460 321.12 458.88 320 457.5 320Z" fill="white"/>
<path d="M482.5 330C481.615 330 468.385 330 467.5 330C466.12 330 465 331.12 465 332.5C465 333.88 466.12 335 467.5 335C468.385 335 481.615 335 482.5 335C483.88 335 485 333.88 485 332.5C485 331.12 483.88 330 482.5 330Z" fill="white"/>
<path d="M322.025 85H272.5C271.12 85 270 83.88 270 82.5C270 81.12 271.12 80 272.5 80H322.025C323.405 80 324.525 81.12 324.525 82.5C324.525 83.88 323.41 85 322.025 85Z" fill="white"/>
<path d="M337.5 85H332.5C331.12 85 330 83.88 330 82.5C330 81.12 331.12 80 332.5 80H337.5C338.88 80 340 81.12 340 82.5C340 83.88 338.885 85 337.5 85Z" fill="white"/>
<path d="M362.455 95H317.5C316.12 95 315 93.88 315 92.5C315 91.12 316.12 90 317.5 90H362.455C363.835 90 364.955 91.12 364.955 92.5C364.955 93.88 363.835 95 362.455 95Z" fill="white"/>
<path d="M307.5 95H302.5C301.12 95 300 93.88 300 92.5C300 91.12 301.12 90 302.5 90H307.5C308.88 90 310 91.12 310 92.5C310 93.88 308.885 95 307.5 95Z" fill="white"/>
<path d="M292.5 95H282.5C281.12 95 280 93.88 280 92.5C280 91.12 281.12 90 282.5 90H292.5C293.88 90 295 91.12 295 92.5C295 93.88 293.885 95 292.5 95Z" fill="white"/>
<path d="M322.5 105H312.5C311.12 105 310 103.88 310 102.5C310 101.12 311.12 100 312.5 100H322.5C323.88 100 325 101.12 325 102.5C325 103.88 323.88 105 322.5 105Z" fill="white"/>
<path d="M337.5 60C336.615 60 333.385 60 332.5 60C331.12 60 330 61.12 330 62.5C330 63.88 331.12 65 332.5 65C333.385 65 336.615 65 337.5 65C338.88 65 340 63.88 340 62.5C340 61.12 338.88 60 337.5 60Z" fill="white"/>
<path d="M337.5 70C336.615 70 313.385 70 312.5 70C311.12 70 310 71.12 310 72.5C310 73.88 311.12 75 312.5 75C313.385 75 336.615 75 337.5 75C338.88 75 340 73.88 340 72.5C340 71.12 338.88 70 337.5 70Z" fill="white"/>
<path d="M362.5 80C361.615 80 348.385 80 347.5 80C346.12 80 345 81.12 345 82.5C345 83.88 346.12 85 347.5 85C348.385 85 361.615 85 362.5 85C363.88 85 365 83.88 365 82.5C365 81.12 363.88 80 362.5 80Z" fill="white"/>
<path d="M160.89 356.435C170.305 356.435 178.475 356.435 178.59 356.435C189.14 356.435 197.695 348.065 197.695 337.74C197.695 328.73 191.185 321.215 182.52 319.44C182.62 318.65 182.69 317.855 182.69 317.04C182.69 306.345 173.83 297.675 162.905 297.675C156.455 297.675 150.74 300.71 147.13 305.39C146.205 293.485 135.34 284.3 122.63 285.825C113.335 286.94 105.645 293.97 103.935 302.98C103.385 305.87 103.445 308.675 103.99 311.305C101.5 308.68 97.95 307.025 94 307.025C86.77 307.025 80.865 312.535 80.4 319.495C77.115 318.785 73.545 318.83 69.785 320.21C62.595 322.85 57.475 329.475 57.175 336.99C56.75 347.655 65.46 356.435 76.265 356.435C77.085 356.435 79.97 356.435 80.635 356.435H120.305M128.505 356.435H130.305Z" fill="#FDFCEF"/>
<path d="M178.59 358.94H160.89C159.51 358.94 158.39 357.82 158.39 356.44C158.39 355.06 159.51 353.94 160.89 353.94H178.59C187.745 353.94 195.195 346.675 195.195 337.745C195.195 330.125 189.655 323.455 182.015 321.895C180.735 321.63 179.87 320.425 180.035 319.125C180.125 318.44 180.185 317.75 180.185 317.04C180.185 307.74 172.43 300.175 162.9 300.175C157.44 300.175 152.41 302.63 149.1 306.92C148.47 307.74 147.395 308.075 146.405 307.79C145.415 307.49 144.71 306.62 144.63 305.59C144.235 300.49 141.805 295.87 137.785 292.57C133.64 289.17 128.36 287.675 122.92 288.305C114.69 289.29 107.89 295.515 106.385 303.44C105.915 305.915 105.93 308.39 106.43 310.8C106.655 311.895 106.13 313.005 105.14 313.525C104.155 314.035 102.94 313.84 102.17 313.025C100.03 310.77 97.125 309.525 93.995 309.525C88.15 309.525 83.27 313.98 82.89 319.66C82.84 320.39 82.48 321.05 81.9 321.49C81.32 321.925 80.58 322.09 79.87 321.935C76.675 321.245 73.655 321.445 70.64 322.56C64.33 324.875 59.92 330.715 59.665 337.085C59.49 341.465 61.08 345.63 64.14 348.815C67.315 352.115 71.62 353.935 76.255 353.935H120.29C121.67 353.935 122.79 355.055 122.79 356.435C122.79 357.815 121.67 358.935 120.29 358.935H76.255C70.33 358.935 64.6 356.51 60.535 352.28C56.52 348.1 54.44 342.635 54.67 336.89C55.005 328.515 60.73 320.87 68.915 317.86C71.965 316.735 75.115 316.34 78.315 316.64C80.035 309.66 86.46 304.52 93.99 304.52C96.455 304.52 98.875 305.085 101.06 306.135C101.105 304.925 101.245 303.715 101.475 302.5C103.38 292.455 111.955 284.575 122.325 283.335C129.15 282.5 135.75 284.425 140.955 288.69C144.695 291.755 147.345 295.735 148.685 300.2C152.64 296.96 157.615 295.165 162.895 295.165C175.185 295.165 185.18 304.975 185.18 317.03C185.18 317.2 185.18 317.37 185.175 317.545C193.995 320.32 200.19 328.485 200.19 337.735C200.195 349.43 190.505 358.94 178.59 358.94ZM130.305 358.94H128.505C127.125 358.94 126.005 357.82 126.005 356.44C126.005 355.06 127.125 353.94 128.505 353.94H130.305C131.685 353.94 132.805 355.06 132.805 356.44C132.805 357.82 131.685 358.94 130.305 358.94Z" fill="#472B29"/>
<path d="M170.055 329.92C169.965 329.92 169.875 329.91 169.78 329.89C169.105 329.74 168.68 329.07 168.835 328.395C169.02 327.575 169.305 326.77 169.685 326C172.705 319.88 181.045 317.615 188.295 320.965C188.92 321.255 189.195 321.995 188.905 322.62C188.615 323.25 187.87 323.515 187.245 323.23C181.24 320.45 174.36 322.19 171.93 327.1C171.64 327.69 171.42 328.31 171.28 328.935C171.145 329.525 170.63 329.92 170.055 329.92Z" fill="#472B29"/>
<path d="M144.26 358.94H138.725C137.345 358.94 136.225 357.82 136.225 356.44C136.225 355.06 137.345 353.94 138.725 353.94H144.26C145.64 353.94 146.76 355.06 146.76 356.44C146.76 357.82 145.645 358.94 144.26 358.94Z" fill="#472B29"/>
<path d="M218.5 360.245V324.145C218.5 306.89 212.47 289.525 200.07 271.055C198.705 269.02 197.325 266.43 196.045 263.5H207.5C210.81 263.5 213.5 260.81 213.5 257.5V238.5H257.5C260.81 238.5 263.5 235.81 263.5 232.5V212.5C263.5 209.19 260.805 206.5 257.5 206.5H238.5V188.5H257.5C260.81 188.5 263.5 185.81 263.5 182.5V139.425C266.925 138.96 270.375 138.725 273.805 138.725C312.645 138.725 344.515 168.705 352.585 190.34C361.2 213.425 358.345 220.97 357.685 222.25C356.685 224.195 356.81 226.52 358.01 228.325L379.955 261.31C380.785 262.685 381.64 266.365 380.86 268.485C380.575 269.255 380.19 269.52 379.7 269.68C373.74 271.65 368.24 272.855 365.495 273.395C362.705 273.945 360.68 276.42 360.68 279.275V307.365C360.68 307.605 360.21 331.495 343.41 331.495H311.83C308.52 331.495 305.83 334.185 305.83 337.495V366.235L218.5 360.245Z" fill="url(#paint1_linear_5_92)"/>
<path d="M273.805 142.22C311.055 142.22 341.585 170.875 349.305 191.56C357.715 214.1 354.605 220.58 354.57 220.645C352.99 223.715 353.19 227.4 355.095 230.26L376.92 263.07C377.34 263.855 377.715 265.58 377.67 266.66C372.245 268.395 367.335 269.465 364.81 269.965C360.385 270.84 357.175 274.755 357.175 279.28V307.37C357.175 307.575 356.585 328 343.405 328H311.825C306.585 328 302.325 332.26 302.325 337.5V362.495L222 356.98V324.145C222 306.175 215.78 288.17 202.975 269.1C202.545 268.46 202.11 267.755 201.68 267H207.5C212.74 267 217 262.74 217 257.5V242H235H257.5C262.74 242 267 237.74 267 232.5V212.5C267 207.26 262.74 203 257.5 203H242V192H257.5C262.74 192 267 187.74 267 182.5V175.125V162.5V142.545C269.27 142.33 271.545 142.22 273.805 142.22ZM273.805 135.22C269.295 135.22 264.69 135.605 260 136.425V162.5V175.125V182.5C260 183.88 258.88 185 257.5 185H237.5C236.12 185 235 186.12 235 187.5V207.5C235 208.88 236.12 210 237.5 210H257.5C258.88 210 260 211.12 260 212.5V232.5C260 233.88 258.88 235 257.5 235H235H212.5C211.12 235 210 236.12 210 237.5V257.5C210 258.88 208.88 260 207.5 260H194.545C192.75 260 191.56 261.84 192.245 263.5C193.805 267.29 195.49 270.51 197.165 273.005C211.83 294.845 215 311.565 215 324.145V361.18C215 362.49 216.01 363.575 217.32 363.675L306.645 369.805C306.705 369.81 306.77 369.81 306.83 369.81C308.195 369.81 309.325 368.7 309.325 367.31V337.5C309.325 336.12 310.445 335 311.825 335H343.405C360.02 335 364.175 315.755 364.175 307.37V279.28C364.175 278.085 364.995 277.065 366.17 276.835C369.04 276.27 374.665 275.035 380.79 273.01C386.43 271.145 384.77 262.525 382.865 259.375L360.925 226.39C360.415 225.625 360.375 224.675 360.795 223.86C362.255 221.035 364.475 212.2 355.865 189.12C347.685 167.2 314.985 135.22 273.805 135.22Z" fill="#472B29"/>
<path d="M310.88 332.5C292.42 332.5 275.9 326.69 264.37 316.145C263.35 315.215 263.28 313.63 264.21 312.615C265.145 311.595 266.725 311.525 267.745 312.46C278.35 322.16 293.67 327.505 310.88 327.505C312.26 327.505 313.38 328.625 313.38 330.005C313.38 331.385 312.265 332.5 310.88 332.5Z" fill="#472B29"/>
<path d="M259.62 309.65C258.85 309.65 258.09 309.295 257.605 308.63C255.74 306.095 254.125 303.39 252.8 300.59C252.21 299.34 252.745 297.85 253.99 297.26C255.235 296.665 256.73 297.205 257.32 298.45C258.51 300.96 259.96 303.395 261.63 305.67C262.45 306.785 262.21 308.35 261.095 309.165C260.65 309.49 260.135 309.65 259.62 309.65Z" fill="#472B29"/>
<path d="M299.79 197.5H280.205C278.71 197.5 277.495 196.285 277.495 194.79V175.205C277.495 173.71 278.71 172.495 280.205 172.495H299.79C301.285 172.495 302.5 173.71 302.5 175.205V194.79C302.5 196.285 301.285 197.5 299.79 197.5Z" fill="#EE3E54"/>
<path d="M299.79 198.75H280.205C278.02 198.75 276.245 196.975 276.245 194.79V175.205C276.245 173.02 278.02 171.245 280.205 171.245H299.79C301.975 171.245 303.75 173.02 303.75 175.205V194.79C303.75 196.975 301.975 198.75 299.79 198.75ZM280.21 173.75C279.405 173.75 278.75 174.405 278.75 175.21V194.795C278.75 195.6 279.405 196.255 280.21 196.255H299.795C300.6 196.255 301.255 195.6 301.255 194.795V175.21C301.255 174.405 300.6 173.75 299.795 173.75H280.21Z" fill="#472B29"/>
<path d="M334.79 232.5H315.205C313.71 232.5 312.495 231.285 312.495 229.79V210.205C312.495 208.71 313.71 207.495 315.205 207.495H334.79C336.285 207.495 337.5 208.71 337.5 210.205V229.79C337.5 231.285 336.285 232.5 334.79 232.5Z" fill="#6148FF"/>
<path d="M334.79 233.75H315.205C313.02 233.75 311.245 231.975 311.245 229.79V210.205C311.245 208.02 313.02 206.245 315.205 206.245H334.79C336.975 206.245 338.75 208.02 338.75 210.205V229.79C338.75 231.975 336.975 233.75 334.79 233.75ZM315.21 208.75C314.405 208.75 313.75 209.405 313.75 210.21V229.795C313.75 230.6 314.405 231.255 315.21 231.255H334.795C335.6 231.255 336.255 230.6 336.255 229.795V210.21C336.255 209.405 335.6 208.75 334.795 208.75H315.21Z" fill="#472B29"/>
<path d="M259.79 282.5H240.205C238.71 282.5 237.495 281.285 237.495 279.79V260.205C237.495 258.71 238.71 257.495 240.205 257.495H259.79C261.285 257.495 262.5 258.71 262.5 260.205V279.79C262.5 281.285 261.285 282.5 259.79 282.5Z" fill="url(#paint2_linear_5_92)"/>
<path d="M259.79 283.75H240.205C238.02 283.75 236.245 281.975 236.245 279.79V260.205C236.245 258.02 238.02 256.245 240.205 256.245H259.79C261.975 256.245 263.75 258.02 263.75 260.205V279.79C263.75 281.975 261.975 283.75 259.79 283.75ZM240.21 258.75C239.405 258.75 238.75 259.405 238.75 260.21V279.795C238.75 280.6 239.405 281.255 240.21 281.255H259.795C260.6 281.255 261.255 280.6 261.255 279.795V260.21C261.255 259.405 260.6 258.75 259.795 258.75H240.21Z" fill="#472B29"/>
<path d="M299.25 267.5H275.75C273.955 267.5 272.5 266.045 272.5 264.25V240.75C272.5 238.955 273.955 237.5 275.75 237.5H299.25C301.045 237.5 302.5 238.955 302.5 240.75V264.25C302.5 266.045 301.045 267.5 299.25 267.5Z" fill="#1766FF"/>
<path d="M299.25 268.75H275.75C273.27 268.75 271.25 266.73 271.25 264.25V240.75C271.25 238.27 273.27 236.25 275.75 236.25H299.25C301.73 236.25 303.75 238.27 303.75 240.75V264.25C303.75 266.73 301.73 268.75 299.25 268.75ZM275.75 238.75C274.645 238.75 273.75 239.645 273.75 240.75V264.25C273.75 265.35 274.645 266.25 275.75 266.25H299.25C300.355 266.25 301.25 265.355 301.25 264.25V240.75C301.25 239.65 300.355 238.75 299.25 238.75H275.75Z" fill="#472B29"/>
<path d="M295.335 298.75H279.665C277.785 298.75 276.25 297.215 276.25 295.335V288.96C276.25 288.27 276.81 287.71 277.5 287.71C278.19 287.71 278.75 288.27 278.75 288.96V295.335C278.75 295.84 279.16 296.25 279.665 296.25H295.335C295.84 296.25 296.25 295.84 296.25 295.335V279.67C296.25 279.165 295.84 278.755 295.335 278.755H279.665C279.16 278.755 278.75 279.165 278.75 279.67V283.855C278.75 284.545 278.19 285.105 277.5 285.105C276.81 285.105 276.25 284.545 276.25 283.855V279.67C276.25 277.785 277.785 276.255 279.665 276.255H295.335C297.215 276.255 298.75 277.79 298.75 279.67V295.335C298.75 297.215 297.215 298.75 295.335 298.75Z" fill="#472B29"/>
<path d="M295.335 228.75C294.645 228.75 294.085 228.19 294.085 227.5C294.085 226.81 294.645 226.25 295.335 226.25C295.84 226.25 296.25 225.84 296.25 225.335V209.67C296.25 209.165 295.84 208.755 295.335 208.755H286.145C285.455 208.755 284.895 208.195 284.895 207.505C284.895 206.815 285.455 206.255 286.145 206.255H295.335C297.215 206.255 298.75 207.79 298.75 209.67V225.335C298.75 227.215 297.215 228.75 295.335 228.75Z" fill="#472B29"/>
<path d="M289.69 228.75H279.67C277.79 228.75 276.255 227.215 276.255 225.335V209.67C276.255 207.785 277.79 206.255 279.67 206.255C280.36 206.255 280.92 206.815 280.92 207.505C280.92 208.195 280.36 208.755 279.67 208.755C279.165 208.755 278.755 209.165 278.755 209.67V225.335C278.755 225.84 279.165 226.25 279.67 226.25H289.69C290.38 226.25 290.94 226.81 290.94 227.5C290.94 228.19 290.38 228.75 289.69 228.75Z" fill="#472B29"/>
<path d="M339.25 273.75H330.73C330.04 273.75 329.48 273.19 329.48 272.5C329.48 271.81 330.04 271.25 330.73 271.25H339.25C340.355 271.25 341.25 270.355 341.25 269.25C341.25 268.56 341.81 268 342.5 268C343.19 268 343.75 268.56 343.75 269.25C343.75 271.73 341.73 273.75 339.25 273.75Z" fill="#472B29"/>
<path d="M342.5 265.73C341.81 265.73 341.25 265.17 341.25 264.48V245.75C341.25 244.65 340.355 243.75 339.25 243.75H326.04C325.35 243.75 324.79 243.19 324.79 242.5C324.79 241.81 325.35 241.25 326.04 241.25H339.25C341.73 241.25 343.75 243.27 343.75 245.75V264.48C343.75 265.17 343.19 265.73 342.5 265.73Z" fill="#472B29"/>
<path d="M322.815 273.75H315.75C313.27 273.75 311.25 271.73 311.25 269.25V245.75C311.25 243.27 313.27 241.25 315.75 241.25H319.48C320.17 241.25 320.73 241.81 320.73 242.5C320.73 243.19 320.17 243.75 319.48 243.75H315.75C314.645 243.75 313.75 244.645 313.75 245.75V269.25C313.75 270.35 314.645 271.25 315.75 271.25H322.815C323.505 271.25 324.065 271.81 324.065 272.5C324.065 273.19 323.505 273.75 322.815 273.75Z" fill="#472B29"/>
<path d="M227.71 172.5L227.5 152.71L247.29 152.5L247.5 172.29L247.29 172.5H227.71Z" fill="#1766FF"/>
<path d="M245 155V170H230V155H245ZM247.29 150H227.705C226.215 150 225 151.215 225 152.71V172.295C225 173.785 226.215 175 227.71 175H247.295C248.785 175 250 173.785 250 172.29V152.705C250 151.215 248.785 150 247.29 150Z" fill="#472B29"/>
<path d="M212.71 137.5L212.5 117.71L232.29 117.5L232.5 137.29L232.29 137.5H212.71Z" fill="url(#paint3_linear_5_92)"/>
<path d="M230 120V135H215V120H230ZM232.29 115H212.705C211.215 115 210 116.215 210 117.71V137.295C210 138.785 211.215 140 212.71 140H232.295C233.785 140 235 138.785 235 137.29V117.705C235 116.215 233.785 115 232.29 115Z" fill="#472B29"/>
<path d="M183.25 182.5C182.835 182.5 182.5 182.165 182.5 181.75V158.25C182.5 157.835 182.835 157.5 183.25 157.5H206.75C207.165 157.5 207.5 157.835 207.5 158.25V181.75C207.5 182.165 207.165 182.5 206.75 182.5H183.25Z" fill="#7EF36F"/>
<path d="M205 160V180H185V160H205ZM206.75 155H183.25C181.455 155 180 156.455 180 158.25V181.75C180 183.545 181.455 185 183.25 185H206.75C208.545 185 210 183.545 210 181.75V158.25C210 156.455 208.545 155 206.75 155Z" fill="#472B29"/>
<path d="M177.71 247.5L177.5 227.71L197.29 227.5L197.5 247.29L197.29 247.5H177.71Z" fill="url(#paint4_linear_5_92)"/>
<path d="M195 230V245H180V230H195ZM197.29 225H177.705C176.215 225 175 226.215 175 227.71V247.295C175 248.785 176.215 250 177.71 250H197.295C198.785 250 200 248.785 200 247.29V227.705C200 226.215 198.785 225 197.29 225Z" fill="#472B29"/>
<path d="M202.71 217.5L202.5 197.71L222.29 197.5L222.5 217.29L222.29 217.5H202.71Z" fill="#FE316F"/>
<path d="M220 200V215H205V200H220ZM222.29 195H202.705C201.215 195 200 196.215 200 197.71V217.295C200 218.785 201.215 220 202.71 220H222.295C223.785 220 225 218.785 225 217.29V197.705C225 196.215 223.785 195 222.29 195Z" fill="#472B29"/>
<path d="M312.755 168.76C321.79 174.875 330.325 183.97 337.5 197.5Z" fill="#F6CCA4"/>
<path d="M337.5 198.75C337.055 198.75 336.62 198.51 336.395 198.085C329.905 185.85 321.715 176.335 312.05 169.795C311.48 169.41 311.325 168.63 311.715 168.06C312.105 167.49 312.885 167.34 313.45 167.725C323.455 174.495 331.915 184.315 338.6 196.91C338.925 197.52 338.695 198.275 338.08 198.6C337.9 198.705 337.7 198.75 337.5 198.75Z" fill="#472B29"/>
<path d="M282.5 157.5C289.24 158.495 296.215 160.25 303.075 163.355Z" fill="#F6CCA4"/>
<path d="M303.075 164.605C302.9 164.605 302.725 164.57 302.56 164.495C296.445 161.73 289.825 159.845 282.315 158.735C281.635 158.635 281.16 158 281.26 157.315C281.365 156.635 282.005 156.155 282.68 156.26C290.42 157.405 297.26 159.35 303.59 162.215C304.22 162.5 304.5 163.24 304.215 163.87C304.005 164.33 303.55 164.605 303.075 164.605Z" fill="#472B29"/>
<path d="M147.71 162.5L147.5 142.71L167.29 142.5L167.5 162.29L167.29 162.5H147.71Z" fill="#EE3E54"/>
<path d="M165 145V160H150V145H165ZM167.29 140H147.705C146.215 140 145 141.215 145 142.71V162.295C145 163.785 146.215 165 147.71 165H167.295C168.785 165 170 163.785 170 162.29V142.705C170 141.215 168.785 140 167.29 140Z" fill="#472B29"/>
<path d="M152.5 135.415C151.81 135.415 151.25 134.855 151.25 134.165V123.125C151.25 119.335 154.335 116.25 158.125 116.25H163.96C164.65 116.25 165.21 116.81 165.21 117.5C165.21 118.19 164.65 118.75 163.96 118.75H158.125C155.715 118.75 153.75 120.715 153.75 123.125V134.165C153.75 134.855 153.19 135.415 152.5 135.415Z" fill="#472B29"/>
<path d="M192.5 144.79C191.81 144.79 191.25 144.23 191.25 143.54V123.125C191.25 120.715 189.285 118.75 186.875 118.75H173.96C173.27 118.75 172.71 118.19 172.71 117.5C172.71 116.81 173.27 116.25 173.96 116.25H186.875C190.665 116.25 193.75 119.335 193.75 123.125V143.54C193.75 144.23 193.19 144.79 192.5 144.79Z" fill="#472B29"/>
<path d="M152.71 212.5L152.5 192.71L172.29 192.5L172.5 212.29L172.29 212.5H152.71Z" fill="#1766FF"/>
<path d="M170 195V210H155V195H170ZM172.29 190H152.705C151.215 190 150 191.215 150 192.71V212.295C150 213.785 151.215 215 152.71 215H172.295C173.785 215 175 213.785 175 212.29V192.705C175 191.215 173.785 190 172.29 190Z" fill="#472B29"/>
<path d="M162.5 185.08C161.81 185.08 161.25 184.52 161.25 183.83C161.25 181.03 158.97 178.75 156.17 178.75H139.165C138.475 178.75 137.915 178.19 137.915 177.5C137.915 176.81 138.475 176.25 139.165 176.25H156.17C160.35 176.25 163.75 179.65 163.75 183.83C163.75 184.52 163.19 185.08 162.5 185.08Z" fill="#472B29"/>
<path d="M117.5 185.08C116.81 185.08 116.25 184.52 116.25 183.83C116.25 179.65 119.65 176.25 123.83 176.25H128.96C129.65 176.25 130.21 176.81 130.21 177.5C130.21 178.19 129.65 178.75 128.96 178.75H123.83C121.03 178.75 118.75 181.03 118.75 183.83C118.75 184.52 118.19 185.08 117.5 185.08Z" fill="#472B29"/>
<path d="M117.5 208.75C116.81 208.75 116.25 208.19 116.25 207.5V191.46C116.25 190.77 116.81 190.21 117.5 190.21C118.19 190.21 118.75 190.77 118.75 191.46V207.5C118.75 208.19 118.19 208.75 117.5 208.75Z" fill="#472B29"/>
<path d="M140.21 223.75H123.83C119.65 223.75 116.25 220.35 116.25 216.17V212.705C116.25 212.015 116.81 211.455 117.5 211.455C118.19 211.455 118.75 212.015 118.75 212.705V216.17C118.75 218.97 121.03 221.25 123.83 221.25H140.21C140.9 221.25 141.46 221.81 141.46 222.5C141.46 223.19 140.9 223.75 140.21 223.75Z" fill="#472B29"/>
<path d="M156.17 223.75H150.205C149.515 223.75 148.955 223.19 148.955 222.5C148.955 221.81 149.515 221.25 150.205 221.25H156.17C157.64 221.25 159.035 220.615 160 219.505C160.45 218.985 161.24 218.93 161.765 219.385C162.285 219.84 162.34 220.63 161.885 221.15C160.445 222.8 158.365 223.75 156.17 223.75Z" fill="#472B29"/>
<path d="M133.28 163.75H111.715C108.7 163.75 106.245 161.295 106.245 158.28V136.715C106.245 133.7 108.7 131.245 111.715 131.245H133.28C136.295 131.245 138.75 133.7 138.75 136.715V158.28C138.75 161.295 136.295 163.75 133.28 163.75ZM111.72 133.75C110.085 133.75 108.75 135.08 108.75 136.72V158.285C108.75 159.92 110.085 161.255 111.72 161.255H133.285C134.92 161.255 136.255 159.925 136.255 158.285V136.72C136.255 135.085 134.92 133.75 133.285 133.75H111.72V133.75Z" fill="#472B29"/>
<defs>
<linearGradient id="paint0_linear_5_92" x1="439.228" y1="419.505" x2="106.599" y2="8.17573" gradientUnits="userSpaceOnUse">
<stop stop-color="#434BFF"/>
<stop offset="1" stop-color="#FF4B81"/>
</linearGradient>
<linearGradient id="paint1_linear_5_92" x1="292.48" y1="111.891" x2="365.137" y2="409.79" gradientUnits="userSpaceOnUse">
<stop stop-color="#88F96D"/>
<stop offset="1" stop-color="#66E773"/>
</linearGradient>
<linearGradient id="paint2_linear_5_92" x1="250.399" y1="257.351" x2="250.404" y2="282.663" gradientUnits="userSpaceOnUse">
<stop stop-color="#E061BD"/>
<stop offset="1" stop-color="#E061BD"/>
</linearGradient>
<linearGradient id="paint3_linear_5_92" x1="214.454" y1="122.311" x2="225.073" y2="137.025" gradientUnits="userSpaceOnUse">
<stop stop-color="#7582F9"/>
<stop offset="1" stop-color="#9B66D4"/>
</linearGradient>
<linearGradient id="paint4_linear_5_92" x1="176.711" y1="235.5" x2="197.513" y2="235.569" gradientUnits="userSpaceOnUse">
<stop stop-color="#88F96D"/>
<stop offset="1" stop-color="#66E773"/>
</linearGradient>
</defs>
</svg>
